999
dxfrw 0.6.3
  0
SECTION
  2
HEADER
  9
$ACADVER
  1
AC1021
  9
$DWGCODEPAGE
  3
ANSI_1251
  9
$INSBASE
 10
0
 20
0
 30
0
  9
$EXTMIN
 10
-64.60629897692472
 20
-18.4123503258924
 30
0
  9
$EXTMAX
 10
37.45767377931301
 20
36.76185033212226
 30
0
  9
$LIMMIN
 10
0
 20
0
  9
$LIMMAX
 10
420
 20
297
  9
$ORTHOMODE
 70
    0
  9
$REGENMODE
 70
    1
  9
$FILLMODE
 70
    1
  9
$QTEXTMODE
 70
    0
  9
$MIRRTEXT
 70
    0
  9
$LTSCALE
 40
1
  9
$ATTMODE
 70
    1
  9
$TEXTSIZE
 40
2.5
  9
$TRACEWID
 40
15.68
  9
$TEXTSTYLE
  7
Standard
  9
$CLAYER
  8
size
  9
$CELTYPE
  6
ByLayer
  9
$CECOLOR
 62
  256
  9
$CELTSCALE
 40
1
  9
$DISPSILH
 70
    0
  9
$DIMSCALE
 40
0.5
  9
$DIMASZ
 40
2.5
  9
$DIMEXO
 40
0
  9
$DIMDLI
 40
3.75
  9
$DIMRND
 40
0
  9
$DIMDLE
 40
0
  9
$DIMEXE
 40
1.25
  9
$DIMTP
 40
0
  9
$DIMTM
 40
0
  9
$DIMTXT
 40
2.5
  9
$DIMCEN
 40
2.5
  9
$DIMTSZ
 40
0
  9
$DIMTOL
 70
    0
  9
$DIMLIM
 70
    0
  9
$DIMTIH
 70
    0
  9
$DIMTOH
 70
    0
  9
$DIMSE1
 70
    0
  9
$DIMSE2
 70
    0
  9
$DIMTAD
 70
    1
  9
$DIMZIN
 70
    1
  9
$DIMBLK
  1

  9
$DIMASO
 70
    1
  9
$DIMSHO
 70
    1
  9
$DIMPOST
  1

  9
$DIMAPOST
  1

  9
$DIMALT
 70
    0
  9
$DIMALTD
 70
    3
  9
$DIMALTF
 40
0.03937
  9
$DIMLFAC
 40
1
  9
$DIMTOFL
 70
    1
  9
$DIMTVP
 40
0
  9
$DIMTIX
 70
    0
  9
$DIMSOXD
 70
    0
  9
$DIMSAH
 70
    0
  9
$DIMBLK1
  1

  9
$DIMBLK2
  1

  9
$DIMSTYLE
  2
Standard
  9
$DIMCLRD
 70
    0
  9
$DIMCLRE
 70
    0
  9
$DIMCLRT
 70
    0
  9
$DIMTFAC
 40
1
  9
$DIMGAP
 40
0.625
  9
$DIMJUST
 70
    0
  9
$DIMSD1
 70
    0
  9
$DIMSD2
 70
    0
  9
$DIMTOLJ
 70
    0
  9
$DIMTZIN
 70
    8
  9
$DIMALTZ
 70
    0
  9
$DIMALTTZ
 70
    0
  9
$DIMUPT
 70
    0
  9
$DIMDEC
 70
    2
  9
$DIMTDEC
 70
    2
  9
$DIMALTU
 70
    2
  9
$DIMALTTD
 70
    3
  9
$DIMTXSTY
  7
standard
  9
$DIMAUNIT
 70
    0
  9
$DIMADEC
 70
    0
  9
$DIMALTRND
 40
0
  9
$DIMAZIN
 70
    0
  9
$DIMDSEP
 70
    0
  9
$DIMATFIT
 70
    3
  9
$DIMFRAC
 70
    0
  9
$DIMLDRBLK
  1
STANDARD
  9
$DIMLUNIT
 70
    2
  9
$DIMLWD
 70
   -2
  9
$DIMLWE
 70
   -2
  9
$DIMTMOVE
 70
    0
  9
$DIMFXL
 40
1
  9
$DIMFXLON
 70
    0
  9
$DIMJOGANG
 40
0.7854
  9
$DIMTFILL
 70
    0
  9
$DIMTFILLCLR
 70
    0
  9
$DIMARCSYM
 70
    0
  9
$DIMLTYPE
  6

  9
$DIMLTEX1
  6

  9
$DIMLTEX2
  6

  9
$LUNITS
 70
    2
  9
$LUPREC
 70
    2
  9
$SKETCHINC
 40
1
  9
$FILLETRAD
 40
0
  9
$AUNITS
 70
    0
  9
$AUPREC
 70
    0
  9
$MENU
  1
.
  9
$ELEVATION
 40
0
  9
$PELEVATION
 40
0
  9
$THICKNESS
 40
0
  9
$LIMCHECK
 70
    0
  9
$CHAMFERA
 40
0
  9
$CHAMFERB
 40
0
  9
$CHAMFERC
 40
0
  9
$CHAMFERD
 40
0
  9
$SKPOLY
 70
    0
  9
$USRTIMER
 70
    1
  9
$ANGBASE
 50
0
  9
$ANGDIR
 70
    0
  9
$PDMODE
 70
    0
  9
$PDSIZE
 40
0
  9
$PLINEWID
 40
0
  9
$SPLFRAME
 70
    0
  9
$SPLINETYPE
 70
    2
  9
$SPLINESEGS
 70
    8
  9
$HANDSEED
  5
20000
  9
$SURFTAB1
 70
    6
  9
$SURFTAB2
 70
    6
  9
$SURFTYPE
 70
    6
  9
$SURFU
 70
    6
  9
$SURFV
 70
    6
  9
$UCSBASE
  2

  9
$UCSNAME
  2

  9
$UCSORG
 10
0
 20
0
 30
0
  9
$UCSXDIR
 10
1
 20
0
 30
0
  9
$UCSYDIR
 10
0
 20
1
 30
0
  9
$UCSORTHOREF
  2

  9
$UCSORTHOVIEW
 70
    0
  9
$UCSORGTOP
 10
0
 20
0
 30
0
  9
$UCSORGBOTTOM
 10
0
 20
0
 30
0
  9
$UCSORGLEFT
 10
0
 20
0
 30
0
  9
$UCSORGRIGHT
 10
0
 20
0
 30
0
  9
$UCSORGFRONT
 10
0
 20
0
 30
0
  9
$UCSORGBACK
 10
0
 20
0
 30
0
  9
$PUCSBASE
  2

  9
$PUCSNAME
  2

  9
$PUCSORG
 10
0
 20
0
 30
0
  9
$PUCSXDIR
 10
1
 20
0
 30
0
  9
$PUCSYDIR
 10
0
 20
1
 30
0
  9
$PUCSORTHOREF
  2

  9
$PUCSORTHOVIEW
 70
    0
  9
$PUCSORGTOP
 10
0
 20
0
 30
0
  9
$PUCSORGBOTTOM
 10
0
 20
0
 30
0
  9
$PUCSORGLEFT
 10
0
 20
0
 30
0
  9
$PUCSORGRIGHT
 10
0
 20
0
 30
0
  9
$PUCSORGFRONT
 10
0
 20
0
 30
0
  9
$PUCSORGBACK
 10
0
 20
0
 30
0
  9
$USERI1
 70
    0
  9
$USERI2
 70
    0
  9
$USERI3
 70
    0
  9
$USERI4
 70
    0
  9
$USERI5
 70
    0
  9
$USERR1
 40
0
  9
$USERR2
 40
0
  9
$USERR3
 40
0
  9
$USERR4
 40
0
  9
$USERR5
 40
0
  9
$WORLDVIEW
 70
    1
  9
$SHADEDGE
 70
    3
  9
$SHADEDIF
 70
   70
  9
$TILEMODE
 70
    1
  9
$MAXACTVP
 70
   64
  9
$PINSBASE
 10
0
 20
0
 30
0
  9
$PLIMCHECK
 70
    0
  9
$PEXTMIN
 10
0
 20
0
 30
0
  9
$PEXTMAX
 10
0
 20
0
 30
0
  9
$GRIDMODE
 70
    1
  9
$SNAPSTYLE
 70
    0
  9
$GRIDUNIT
 10
0
 20
0
  9
$PLIMMIN
 10
0
 20
0
  9
$PLIMMAX
 10
297
 20
210
  9
$UNITMODE
 70
    0
  9
$VISRETAIN
 70
    1
  9
$PLINEGEN
 70
    0
  9
$PSLTSCALE
 70
    1
  9
$TREEDEPTH
 70
 3020
  9
$CMLSTYLE
  2
Standard
  9
$CMLJUST
 70
    0
  9
$CMLSCALE
 40
20
  9
$PROXYGRAPHICS
 70
    1
  9
$MEASUREMENT
 70
    1
  9
$CELWEIGHT
370
   -1
  9
$ENDCAPS
280
    0
  9
$JOINSTYLE
280
    0
  9
$LWDISPLAY
290
    0
  9
$INSUNITS
 70
    4
  9
$HYPERLINKBASE
  1

  9
$STYLESHEET
  1

  9
$XEDIT
290
    1
  9
$CEPSNTYPE
380
    0
  9
$PSTYLEMODE
290
    1
  9
$EXTNAMES
290
    1
  9
$PSVPSCALE
 40
1
  9
$OLESTARTUP
290
    0
  9
$SORTENTS
280
  127
  9
$INDEXCTL
280
    0
  9
$HIDETEXT
280
    1
  9
$XCLIPFRAME
290
    0
  9
$HALOGAP
280
    0
  9
$OBSCOLOR
 70
  257
  9
$OBSLTYPE
280
    0
  9
$INTERSECTIONDISPLAY
280
    0
  9
$INTERSECTIONCOLOR
 70
  257
  9
$DIMASSOC
280
    1
  9
$PROJECTNAME
  1

  9
$CAMERADISPLAY
290
    0
  9
$LENSLENGTH
 40
50
  9
$CAMERAHEIGHT
 40
0
  9
$STEPSPERSEC
 40
2
  9
$STEPSIZE
 40
50
  9
$3DDWFPREC
 40
2
  9
$PSOLWIDTH
 40
5
  9
$PSOLHEIGHT
 40
80
  9
$LOFTANG1
 40
1.570796326794897
  9
$LOFTANG2
 40
1.570796326794897
  9
$LOFTMAG1
 40
0
  9
$LOFTMAG2
 40
0
  9
$LOFTPARAM
 70
    7
  9
$LOFTNORMALS
280
    1
  9
$LATITUDE
 40
1
  9
$LONGITUDE
 40
1
  9
$NORTHDIRECTION
 40
0
  9
$TIMEZONE
 70
-8000
  9
$LIGHTGLYPHDISPLAY
280
    1
  9
$TILEMODELIGHTSYNCH
280
    1
  9
$SOLIDHIST
280
    1
  9
$SHOWHIST
280
    1
  9
$DWFFRAME
280
    2
  9
$DGNFRAME
280
    0
  9
$REALWORLDSCALE
290
    1
  9
$INTERFERECOLOR
 62
    1
  9
$CSHADOW
280
    0
  9
$SHADOWPLANELOCATION
 40
0
  0
ENDSEC
  0
SECTION
  2
CLASSES
  0
ENDSEC
  0
SECTION
  2
TABLES
  0
TABLE
  2
VPORT
  5
8
330
0
100
AcDbSymbolTable
 70
    1
  0
VPORT
  5
31
330
2
100
AcDbSymbolTableRecord
100
AcDbViewportTableRecord
  2
*ACTIVE
 70
    0
 10
0
 20
0
 11
1
 21
1
 12
43.19973210063058
 22
48.24495628756554
 13
0
 23
0
 14
10
 24
10
 15
10
 25
10
 16
0
 26
0
 36
1
 17
0
 27
0
 37
0
 40
168.3843572389543
 41
1.428214731585518
 42
50
 43
0
 44
0
 50
0
 51
0
 71
    0
 72
  100
 73
    1
 74
    3
 75
    0
 76
    1
 77
    0
 78
    0
281
    0
 65
    1
110
0
120
0
130
0
111
1
121
0
131
0
112
0
122
1
132
0
 79
    0
146
0
348
10020
 60
    7
 61
    5
292
1
282
    1
141
0
142
0
 63
  250
421
3358443
  0
ENDTAB
  0
TABLE
  2
LTYPE
  5
5
330
0
100
AcDbSymbolTable
 70
    4
  0
LTYPE
  5
14
330
5
100
AcDbSymbolTableRecord
100
AcDbLinetypeTableRecord
  2
ByBlock
 70
    0
  3

 72
   65
 73
    0
 40
0
  0
LTYPE
  5
15
330
5
100
AcDbSymbolTableRecord
100
AcDbLinetypeTableRecord
  2
ByLayer
 70
    0
  3

 72
   65
 73
    0
 40
0
  0
LTYPE
  5
16
330
5
100
AcDbSymbolTableRecord
100
AcDbLinetypeTableRecord
  2
Continuous
 70
    0
  3
Solid line
 72
   65
 73
    0
 40
0
  0
LTYPE
  5
32
330
5
100
AcDbSymbolTableRecord
100
AcDbLinetypeTableRecord
  2
DOT
 70
    0
  3
Dot . . . . . . . . . . . . . . . . . . . . . .
 72
   65
 73
    2
 40
6.35
 49
0
 74
    0
 49
-6.35
 74
    0
  0
LTYPE
  5
33
330
5
100
AcDbSymbolTableRecord
100
AcDbLinetypeTableRecord
  2
DOTTINY
 70
    0
  3
Dot (.15x) .....................................
 72
   65
 73
    2
 40
0.9525
 49
0
 74
    0
 49
-0.9525
 74
    0
  0
LTYPE
  5
34
330
5
100
AcDbSymbolTableRecord
100
AcDbLinetypeTableRecord
  2
DOT2
 70
    0
  3
Dot (.5x) .....................................
 72
   65
 73
    2
 40
3.175
 49
0
 74
    0
 49
-3.175
 74
    0
  0
LTYPE
  5
35
330
5
100
AcDbSymbolTableRecord
100
AcDbLinetypeTableRecord
  2
DOTX2
 70
    0
  3
Dot (2x) .  .  .  .  .  .  .  .  .  .  .  .  .
 72
   65
 73
    2
 40
12.7
 49
0
 74
    0
 49
-12.7
 74
    0
  0
LTYPE
  5
36
330
5
100
AcDbSymbolTableRecord
100
AcDbLinetypeTableRecord
  2
DASHED
 70
    0
  3
Dashed _ _ _ _ _ _ _ _ _ _ _ _ _ _ _ _ _
 72
   65
 73
    2
 40
19.05
 49
12.7
 74
    0
 49
-6.35
 74
    0
  0
LTYPE
  5
37
330
5
100
AcDbSymbolTableRecord
100
AcDbLinetypeTableRecord
  2
DASHEDTINY
 70
    0
  3
Dashed (.15x) _ _ _ _ _ _ _ _ _ _ _ _ _ _ _ _ _
 72
   65
 73
    2
 40
2.8575
 49
1.905
 74
    0
 49
-0.9525
 74
    0
  0
LTYPE
  5
38
330
5
100
AcDbSymbolTableRecord
100
AcDbLinetypeTableRecord
  2
DASHED2
 70
    0
  3
Dashed (.5x) _ _ _ _ _ _ _ _ _ _ _ _ _ _ _ _ _
 72
   65
 73
    2
 40
9.524999999999999
 49
6.35
 74
    0
 49
-3.175
 74
    0
  0
LTYPE
  5
39
330
5
100
AcDbSymbolTableRecord
100
AcDbLinetypeTableRecord
  2
DASHEDX2
 70
    0
  3
Dashed (2x) ____  ____  ____  ____  ____  ___
 72
   65
 73
    2
 40
38.09999999999999
 49
25.4
 74
    0
 49
-12.7
 74
    0
  0
LTYPE
  5
3A
330
5
100
AcDbSymbolTableRecord
100
AcDbLinetypeTableRecord
  2
DASHDOT
 70
    0
  3
Dash dot __ . __ . __ . __ . __ . __ . __ . __
 72
   65
 73
    4
 40
25.4
 49
12.7
 74
    0
 49
-6.35
 74
    0
 49
0
 74
    0
 49
-6.35
 74
    0
  0
LTYPE
  5
3B
330
5
100
AcDbSymbolTableRecord
100
AcDbLinetypeTableRecord
  2
DASHDOTTINY
 70
    0
  3
Dash dot (.15x) _._._._._._._._._._._._._._._.
 72
   65
 73
    4
 40
3.81
 49
1.905
 74
    0
 49
-0.9525
 74
    0
 49
0
 74
    0
 49
-0.9525
 74
    0
  0
LTYPE
  5
3C
330
5
100
AcDbSymbolTableRecord
100
AcDbLinetypeTableRecord
  2
DASHDOT2
 70
    0
  3
Dash dot (.5x) _._._._._._._._._._._._._._._.
 72
   65
 73
    4
 40
12.7
 49
6.35
 74
    0
 49
-3.175
 74
    0
 49
0
 74
    0
 49
-3.175
 74
    0
  0
LTYPE
  5
3D
330
5
100
AcDbSymbolTableRecord
100
AcDbLinetypeTableRecord
  2
DASHDOTX2
 70
    0
  3
Dash dot (2x) ____  .  ____  .  ____  .  ___
 72
   65
 73
    4
 40
50.8
 49
25.4
 74
    0
 49
-12.7
 74
    0
 49
0
 74
    0
 49
-12.7
 74
    0
  0
LTYPE
  5
3E
330
5
100
AcDbSymbolTableRecord
100
AcDbLinetypeTableRecord
  2
DIVIDE
 70
    0
  3
Divide ____ . . ____ . . ____ . . ____ . . ____
 72
   65
 73
    6
 40
31.75
 49
12.7
 74
    0
 49
-6.35
 74
    0
 49
0
 74
    0
 49
-6.35
 74
    0
 49
0
 74
    0
 49
-6.35
 74
    0
  0
LTYPE
  5
3F
330
5
100
AcDbSymbolTableRecord
100
AcDbLinetypeTableRecord
  2
DIVIDETINY
 70
    0
  3
Divide (.15x) __..__..__..__..__..__..__..__.._
 72
   65
 73
    6
 40
4.7625
 49
1.905
 74
    0
 49
-0.9525
 74
    0
 49
0
 74
    0
 49
-0.9525
 74
    0
 49
0
 74
    0
 49
-0.9525
 74
    0
  0
LTYPE
  5
40
330
5
100
AcDbSymbolTableRecord
100
AcDbLinetypeTableRecord
  2
DIVIDE2
 70
    0
  3
Divide (.5x) __..__..__..__..__..__..__..__.._
 72
   65
 73
    6
 40
15.875
 49
6.35
 74
    0
 49
-3.175
 74
    0
 49
0
 74
    0
 49
-3.175
 74
    0
 49
0
 74
    0
 49
-3.175
 74
    0
  0
LTYPE
  5
41
330
5
100
AcDbSymbolTableRecord
100
AcDbLinetypeTableRecord
  2
DIVIDEX2
 70
    0
  3
Divide (2x) ________  .  .  ________  .  .  _
 72
   65
 73
    6
 40
63.5
 49
25.4
 74
    0
 49
-12.7
 74
    0
 49
0
 74
    0
 49
-12.7
 74
    0
 49
0
 74
    0
 49
-12.7
 74
    0
  0
LTYPE
  5
42
330
5
100
AcDbSymbolTableRecord
100
AcDbLinetypeTableRecord
  2
BORDER
 70
    0
  3
Border __ __ . __ __ . __ __ . __ __ . __ __ .
 72
   65
 73
    6
 40
44.45
 49
12.7
 74
    0
 49
-6.35
 74
    0
 49
12.7
 74
    0
 49
-6.35
 74
    0
 49
0
 74
    0
 49
-6.35
 74
    0
  0
LTYPE
  5
43
330
5
100
AcDbSymbolTableRecord
100
AcDbLinetypeTableRecord
  2
BORDERTINY
 70
    0
  3
Border (.15x) __.__.__.__.__.__.__.__.__.__.__.
 72
   65
 73
    6
 40
6.6675
 49
1.905
 74
    0
 49
-0.9525
 74
    0
 49
1.905
 74
    0
 49
-0.9525
 74
    0
 49
0
 74
    0
 49
-0.9525
 74
    0
  0
LTYPE
  5
44
330
5
100
AcDbSymbolTableRecord
100
AcDbLinetypeTableRecord
  2
BORDER2
 70
    0
  3
Border (.5x) __.__.__.__.__.__.__.__.__.__.__.
 72
   65
 73
    6
 40
22.225
 49
6.35
 74
    0
 49
-3.175
 74
    0
 49
6.35
 74
    0
 49
-3.175
 74
    0
 49
0
 74
    0
 49
-3.175
 74
    0
  0
LTYPE
  5
45
330
5
100
AcDbSymbolTableRecord
100
AcDbLinetypeTableRecord
  2
BORDERX2
 70
    0
  3
Border (2x) ____  ____  .  ____  ____  .  ___
 72
   65
 73
    6
 40
88.89999999999999
 49
25.4
 74
    0
 49
-12.7
 74
    0
 49
25.4
 74
    0
 49
-12.7
 74
    0
 49
0
 74
    0
 49
-12.7
 74
    0
  0
LTYPE
  5
46
330
5
100
AcDbSymbolTableRecord
100
AcDbLinetypeTableRecord
  2
CENTER
 70
    0
  3
Center ____ _ ____ _ ____ _ ____ _ ____ _ ____
 72
   65
 73
    4
 40
50.8
 49
31.75
 74
    0
 49
-6.35
 74
    0
 49
6.35
 74
    0
 49
-6.35
 74
    0
  0
LTYPE
  5
47
330
5
100
AcDbSymbolTableRecord
100
AcDbLinetypeTableRecord
  2
CENTERTINY
 70
    0
  3
Center (.15x) ___ _ ___ _ ___ _ ___ _ ___ _ ___
 72
   65
 73
    4
 40
7.619999999999999
 49
4.7625
 74
    0
 49
-0.9525
 74
    0
 49
0.9525
 74
    0
 49
-0.9525
 74
    0
  0
LTYPE
  5
48
330
5
100
AcDbSymbolTableRecord
100
AcDbLinetypeTableRecord
  2
CENTER2
 70
    0
  3
Center (.5x) ___ _ ___ _ ___ _ ___ _ ___ _ ___
 72
   65
 73
    4
 40
28.575
 49
19.05
 74
    0
 49
-3.175
 74
    0
 49
3.175
 74
    0
 49
-3.175
 74
    0
  0
LTYPE
  5
49
330
5
100
AcDbSymbolTableRecord
100
AcDbLinetypeTableRecord
  2
CENTERX2
 70
    0
  3
Center (2x) ________  __  ________  __  _____
 72
   65
 73
    4
 40
101.6
 49
63.5
 74
    0
 49
-12.7
 74
    0
 49
12.7
 74
    0
 49
-12.7
 74
    0
  0
ENDTAB
  0
TABLE
  2
LAYER
  5
2
330
0
100
AcDbSymbolTable
 70
    1
  0
LAYER
  5
10
330
2
100
AcDbSymbolTableRecord
100
AcDbLayerTableRecord
  2
0
 70
    0
 62
    7
  6
CONTINUOUS
370
   -3
390
F
  0
LAYER
  5
4A
330
2
100
AcDbSymbolTableRecord
100
AcDbLayerTableRecord
  2
cam
 70
    0
 62
    7
  6
CONTINUOUS
370
   -3
390
F
  0
LAYER
  5
4B
330
2
100
AcDbSymbolTableRecord
100
AcDbLayerTableRecord
  2
noname
 70
    0
 62
    4
  6
CONTINUOUS
370
    0
390
F
  0
LAYER
  5
4C
330
2
100
AcDbSymbolTableRecord
100
AcDbLayerTableRecord
  2
pressure
 70
    1
 62
    7
  6
CONTINUOUS
370
   -3
390
F
  0
LAYER
  5
4D
330
2
100
AcDbSymbolTableRecord
100
AcDbLayerTableRecord
  2
roller
 70
    0
 62
    7
  6
CONTINUOUS
370
   -3
390
F
  0
LAYER
  5
4E
330
2
100
AcDbSymbolTableRecord
100
AcDbLayerTableRecord
  2
size
 70
    0
 62
    2
  6
CONTINUOUS
370
    0
390
F
  0
ENDTAB
  0
TABLE
  2
STYLE
  5
3
330
0
100
AcDbSymbolTable
 70
    3
  0
STYLE
  5
4F
330
2
100
AcDbSymbolTableRecord
100
AcDbTextStyleTableRecord
  2
unicode
 70
    0
 40
0
 41
1
 50
0
 71
    0
 42
1
  3
unicode
  4

  0
STYLE
  5
50
330
2
100
AcDbSymbolTableRecord
100
AcDbTextStyleTableRecord
  2
Standard
 70
    0
 40
0
 41
1
 50
0
 71
    0
 42
1
  3
txt
  4

  0
ENDTAB
  0
TABLE
  2
VIEW
  5
6
330
0
100
AcDbSymbolTable
 70
    0
  0
ENDTAB
  0
TABLE
  2
UCS
  5
7
330
0
100
AcDbSymbolTable
 70
    0
  0
ENDTAB
  0
TABLE
  2
APPID
  5
9
330
0
100
AcDbSymbolTable
 70
    1
  0
APPID
  5
12
330
9
100
AcDbSymbolTableRecord
100
AcDbRegAppTableRecord
  2
ACAD
 70
    0
  0
APPID
  5
51
330
9
100
AcDbSymbolTableRecord
100
AcDbRegAppTableRecord
  2
LibreCad
 70
    0
  0
ENDTAB
  0
TABLE
  2
DIMSTYLE
  5
A
330
0
100
AcDbSymbolTable
 70
    1
100
AcDbDimStyleTable
 71
    1
  0
DIMSTYLE
105
52
330
A
100
AcDbSymbolTableRecord
100
AcDbDimStyleTableRecord
  2
Standard
 70
    0
 40
0.5
 41
2.5
 42
0
 43
0.38
 44
1.25
 45
0
 46
0
 47
0
 48
0
 49
1
140
2.5
141
0.09
142
0
143
25.4
144
1
145
0
146
1
147
0.625
148
0
 71
    0
 72
    0
 73
    0
 74
    1
 75
    0
 76
    0
 77
    0
 78
    1
 79
    0
170
    0
171
    2
172
    0
173
    0
174
    0
175
    0
176
    0
177
    0
178
    0
179
    0
271
    2
272
    4
273
    2
274
    2
275
    0
276
    0
277
    2
278
    0
279
    0
280
    0
281
    0
282
    0
283
    1
284
    0
285
    0
286
    0
288
    0
289
    3
340
standard
341

371
   -2
372
   -2
  0
ENDTAB
  0
TABLE
  2
BLOCK_RECORD
  5
1
330
0
100
AcDbSymbolTable
 70
    2
  0
BLOCK_RECORD
  5
1F
330
1
100
AcDbSymbolTableRecord
100
AcDbBlockTableRecord
  2
*Model_Space
 70
    0
280
    1
281
    0
  0
BLOCK_RECORD
  5
1E
330
1
100
AcDbSymbolTableRecord
100
AcDbBlockTableRecord
  2
*Paper_Space
 70
    0
280
    1
281
    0
  0
BLOCK_RECORD
  5
53
330
1
100
AcDbSymbolTableRecord
100
AcDbBlockTableRecord
  2
*D1
 70
    0
280
    1
281
    0
  0
BLOCK_RECORD
  5
56
330
1
100
AcDbSymbolTableRecord
100
AcDbBlockTableRecord
  2
*D3
 70
    0
280
    1
281
    0
  0
BLOCK_RECORD
  5
59
330
1
100
AcDbSymbolTableRecord
100
AcDbBlockTableRecord
  2
*D4
 70
    0
280
    1
281
    0
  0
BLOCK_RECORD
  5
5C
330
1
100
AcDbSymbolTableRecord
100
AcDbBlockTableRecord
  2
*D2
 70
    0
280
    1
281
    0
  0
ENDTAB
  0
ENDSEC
  0
SECTION
  2
BLOCKS
  0
BLOCK
  5
20
330
1F
100
AcDbEntity
  8
0
100
AcDbBlockBegin
  2
*Model_Space
 70
    0
 10
0
 20
0
 30
0
  3
*Model_Space
  1

  0
ENDBLK
  5
21
330
1F
100
AcDbEntity
  8
0
100
AcDbBlockEnd
  0
BLOCK
  5
1C
330
1B
100
AcDbEntity
  8
0
100
AcDbBlockBegin
  2
*Paper_Space
 70
    0
 10
0
 20
0
 30
0
  3
*Paper_Space
  1

  0
ENDBLK
  5
1D
330
1F
100
AcDbEntity
  8
0
100
AcDbBlockEnd
  0
BLOCK
  5
54
330
53
100
AcDbEntity
  8
0
100
AcDbBlockBegin
  2
*D1
 70
    1
 10
0
 20
0
  3
*D1
  1

  0
LINE
  5
5F
100
AcDbEntity
  8
size
  6
ByBlock
 62
    0
370
   -2
100
AcDbLine
 10
-13.8721
 20
6.55273e-15
 11
-13.8721
 21
2.219844814853902
  0
LINE
  5
60
100
AcDbEntity
  8
size
  6
ByBlock
 62
    0
370
   -2
100
AcDbLine
 10
0
 20
0
 11
1.359262923557336e-16
 21
2.219844814853895
  0
LINE
  5
61
100
AcDbEntity
  8
size
  6
ByBlock
 62
    0
370
   -2
100
AcDbLine
 10
-13.8721
 20
1.594844814853902
 11
9.765607988237878e-17
 21
1.594844814853895
  0
MTEXT
  5
62
100
AcDbEntity
  8
size
  6
CONTINUOUS
 62
    0
370
   -2
100
AcDbMText
 10
-6.93605
 20
2.532344814853898
 30
0
 40
1.25
 41
3.611111111111189
 71
    5
 72
    1
  1
13.87
  7
standard
210
0
220
0
230
1
 50
0
 73
    2
 44
1
  0
SOLID
  5
63
100
AcDbEntity
  8
size
  6
ByBlock
 62
    0
370
   -2
100
AcDbTrace
 10
-13.8721
 20
1.594844814853902
 30
0
 11
-12.6221
 21
1.802987143740321
 31
0
 12
-12.6221
 22
1.386702485967481
 32
0
 13
-12.6221
 23
1.386702485967481
 33
0
  0
SOLID
  5
64
100
AcDbEntity
  8
size
  6
ByBlock
 62
    0
370
   -2
100
AcDbTrace
 10
9.765607988237878e-17
 20
1.594844814853895
 30
0
 11
-1.25
 21
1.386702485967475
 31
0
 12
-1.25
 22
1.802987143740315
 32
0
 13
-1.25
 23
1.802987143740315
 33
0
  0
ENDBLK
  5
55
330
53
100
AcDbEntity
  8
0
100
AcDbBlockEnd
  0
BLOCK
  5
57
330
56
100
AcDbEntity
  8
0
100
AcDbBlockBegin
  2
*D3
 70
    1
 10
0
 20
0
  3
*D3
  1

  0
SOLID
  5
65
100
AcDbEntity
  8
size
  6
ByBlock
 62
    0
370
   -2
100
AcDbTrace
 10
-10.45310060279857
 20
-9.194646152305028
 30
0
 11
-9.224992068129703
 21
-8.882279931103449
 31
0
 12
-9.190037830266801
 22
-9.297094489132064
 32
0
 13
-9.190037830266801
 23
-9.297094489132064
 33
0
  0
LINE
  5
66
100
AcDbEntity
  8
size
  6
ByBlock
 62
    0
370
   -2
100
AcDbLine
 10
-12.9442719099992
 20
-9.40456403667957
 11
-5.055562770530451
 21
-8.739824069493512
  0
MTEXT
  5
67
100
AcDbEntity
  8
size
  6
CONTINUOUS
 62
    0
370
   -2
100
AcDbMText
 10
-7.833050893304961
 20
-8.033045870699031
 30
0
 40
1.25
 41
2.916666666666745
 71
    5
 72
    1
  1
2.50
  7
standard
210
0
220
0
230
1
 50
4.816634808806841
 73
    2
 44
1
  0
ENDBLK
  5
58
330
56
100
AcDbEntity
  8
0
100
AcDbBlockEnd
  0
BLOCK
  5
5A
330
59
100
AcDbEntity
  8
0
100
AcDbBlockBegin
  2
*D4
 70
    1
 10
0
 20
0
  3
*D4
  1

  0
LINE
  5
68
100
AcDbEntity
  8
size
  6
ByBlock
 62
    0
370
   -2
100
AcDbLine
 10
-15.6503616117409
 20
-3.32658705308415
 11
-15.10761811468453
 21
-5.879994451059193
  0
LINE
  5
69
100
AcDbEntity
  8
size
  6
ByBlock
 62
    0
370
   -2
100
AcDbLine
 10
0
 20
0
 11
0.5427434970563663
 21
-2.553407397975043
  0
LINE
  5
6A
100
AcDbEntity
  8
size
  6
ByBlock
 62
    0
370
   -2
100
AcDbLine
 10
-15.23756292144563
 20
-5.268652200600564
 11
0.4127986902952682
 21
-1.942065147516414
  0
MTEXT
  5
6B
100
AcDbEntity
  8
size
  6
CONTINUOUS
 62
    0
370
   -2
100
AcDbMText
 10
-7.607299325716827
 20
-2.688345298370546
 30
0
 40
1.25
 41
3.611111111111189
 71
    5
 72
    1
  1
16.00
  7
standard
210
0
220
0
230
1
 50
11.99999999999999
 73
    2
 44
1
  0
SOLID
  5
6C
100
AcDbEntity
  8
size
  6
ByBlock
 62
    0
370
   -2
100
AcDbTrace
 10
-15.23756292144563
 20
-5.268652200600564
 30
0
 11
-14.0581536440579
 21
-4.805168667466967
 31
0
 12
-13.97160319699885
 22
-5.212356506689765
 32
0
 13
-13.97160319699885
 23
-5.212356506689765
 33
0
  0
SOLID
  5
6D
100
AcDbEntity
  8
size
  6
ByBlock
 62
    0
370
   -2
100
AcDbTrace
 10
0.4127986902952682
 20
-1.942065147516414
 30
0
 11
-0.7666105870924671
 21
-2.405548680650012
 31
0
 12
-0.8531610341515106
 22
-1.998360841427215
 32
0
 13
-0.8531610341515106
 23
-1.998360841427215
 33
0
  0
ENDBLK
  5
5B
330
59
100
AcDbEntity
  8
0
100
AcDbBlockEnd
  0
BLOCK
  5
5D
330
5C
100
AcDbEntity
  8
0
100
AcDbBlockBegin
  2
*D2
 70
    1
 10
0
 20
0
  3
*D2
  1

  0
LINE
  5
6E
100
AcDbEntity
  8
size
  6
ByBlock
 62
    0
370
   -2
100
AcDbLine
 10
0
 20
0
 11
-0.09700138362840668
 21
1.254405871080941
  0
LINE
  5
6F
100
AcDbEntity
  8
size
  6
ByBlock
 62
    0
370
   -2
100
AcDbLine
 10
-14.47628416647849
 20
-1.119430023662343
 11
-14.5732855501069
 21
0.134975847418598
  0
LINE
  5
70
100
AcDbEntity
  8
size
  6
ByBlock
 62
    0
370
   -2
100
AcDbLine
 10
-0.04881489735352858
 20
0.6312661896767785
 11
-14.52509906383202
 21
-0.4881638339855644
  0
MTEXT
  5
71
100
AcDbEntity
  8
size
  6
CONTINUOUS
 62
    0
370
   -2
100
AcDbMText
 10
-7.359236710005085
 20
1.006260699951851
 30
0
 40
1.25
 41
3.750000000000078
 71
    5
 72
    1
  1
14.52
  7
standard
210
0
220
0
230
1
 50
4.421799716828573
 73
    2
 44
1
  0
SOLID
  5
72
100
AcDbEntity
  8
size
  6
ByBlock
 62
    0
370
   -2
100
AcDbTrace
 10
-0.04881489735352858
 20
0.6312661896767785
 30
0
 11
-1.279046824203284
 21
0.3273704259126217
 31
0
 12
-1.311141696120423
 22
0.7424160083414355
 32
0
 13
-1.311141696120423
 23
0.7424160083414355
 33
0
  0
SOLID
  5
73
100
AcDbEntity
  8
size
  6
ByBlock
 62
    0
370
   -2
100
AcDbTrace
 10
-14.52509906383202
 20
-0.4881638339855644
 30
0
 11
-13.29486713698226
 21
-0.1842680702214082
 31
0
 12
-13.26277226506512
 22
-0.5993136526502222
 32
0
 13
-13.26277226506512
 23
-0.5993136526502222
 33
0
  0
ENDBLK
  5
5E
330
5C
100
AcDbEntity
  8
0
100
AcDbBlockEnd
  0
ENDSEC
  0
SECTION
  2
ENTITIES
  0
CIRCLE
  5
74
100
AcDbEntity
  8
pressure
  6
ByLayer
 62
  256
370
   -1
100
AcDbCircle
 10
-0.7
 20
0
 40
13.128838972359
  0
CIRCLE
  5
75
100
AcDbEntity
  8
pressure
  6
ByLayer
 62
  256
370
   -1
100
AcDbCircle
 10
-0.7
 20
0
 40
14.0516087761271
  0
SPLINE
  5
76
100
AcDbEntity
  8
cam
  6
ByLayer
 62
  256
370
   -1
100
AcDbSpline
210
0
220
0
230
0
 70
   11
 71
    3
 72
 1005
 73
 1001
 74
    0
 42
1e-07
 43
1e-07
 40
0
 40
0
 40
0
 40
0
 40
1
 40
2
 40
3
 40
4
 40
5
 40
6
 40
7
 40
8
 40
9
 40
10
 40
11
 40
12
 40
13
 40
14
 40
15
 40
16
 40
17
 40
18
 40
19
 40
20
 40
21
 40
22
 40
23
 40
24
 40
25
 40
26
 40
27
 40
28
 40
29
 40
30
 40
31
 40
32
 40
33
 40
34
 40
35
 40
36
 40
37
 40
38
 40
39
 40
40
 40
41
 40
42
 40
43
 40
44
 40
45
 40
46
 40
47
 40
48
 40
49
 40
50
 40
51
 40
52
 40
53
 40
54
 40
55
 40
56
 40
57
 40
58
 40
59
 40
60
 40
61
 40
62
 40
63
 40
64
 40
65
 40
66
 40
67
 40
68
 40
69
 40
70
 40
71
 40
72
 40
73
 40
74
 40
75
 40
76
 40
77
 40
78
 40
79
 40
80
 40
81
 40
82
 40
83
 40
84
 40
85
 40
86
 40
87
 40
88
 40
89
 40
90
 40
91
 40
92
 40
93
 40
94
 40
95
 40
96
 40
97
 40
98
 40
99
 40
100
 40
101
 40
102
 40
103
 40
104
 40
105
 40
106
 40
107
 40
108
 40
109
 40
110
 40
111
 40
112
 40
113
 40
114
 40
115
 40
116
 40
117
 40
118
 40
119
 40
120
 40
121
 40
122
 40
123
 40
124
 40
125
 40
126
 40
127
 40
128
 40
129
 40
130
 40
131
 40
132
 40
133
 40
134
 40
135
 40
136
 40
137
 40
138
 40
139
 40
140
 40
141
 40
142
 40
143
 40
144
 40
145
 40
146
 40
147
 40
148
 40
149
 40
150
 40
151
 40
152
 40
153
 40
154
 40
155
 40
156
 40
157
 40
158
 40
159
 40
160
 40
161
 40
162
 40
163
 40
164
 40
165
 40
166
 40
167
 40
168
 40
169
 40
170
 40
171
 40
172
 40
173
 40
174
 40
175
 40
176
 40
177
 40
178
 40
179
 40
180
 40
181
 40
182
 40
183
 40
184
 40
185
 40
186
 40
187
 40
188
 40
189
 40
190
 40
191
 40
192
 40
193
 40
194
 40
195
 40
196
 40
197
 40
198
 40
199
 40
200
 40
201
 40
202
 40
203
 40
204
 40
205
 40
206
 40
207
 40
208
 40
209
 40
210
 40
211
 40
212
 40
213
 40
214
 40
215
 40
216
 40
217
 40
218
 40
219
 40
220
 40
221
 40
222
 40
223
 40
224
 40
225
 40
226
 40
227
 40
228
 40
229
 40
230
 40
231
 40
232
 40
233
 40
234
 40
235
 40
236
 40
237
 40
238
 40
239
 40
240
 40
241
 40
242
 40
243
 40
244
 40
245
 40
246
 40
247
 40
248
 40
249
 40
250
 40
251
 40
252
 40
253
 40
254
 40
255
 40
256
 40
257
 40
258
 40
259
 40
260
 40
261
 40
262
 40
263
 40
264
 40
265
 40
266
 40
267
 40
268
 40
269
 40
270
 40
271
 40
272
 40
273
 40
274
 40
275
 40
276
 40
277
 40
278
 40
279
 40
280
 40
281
 40
282
 40
283
 40
284
 40
285
 40
286
 40
287
 40
288
 40
289
 40
290
 40
291
 40
292
 40
293
 40
294
 40
295
 40
296
 40
297
 40
298
 40
299
 40
300
 40
301
 40
302
 40
303
 40
304
 40
305
 40
306
 40
307
 40
308
 40
309
 40
310
 40
311
 40
312
 40
313
 40
314
 40
315
 40
316
 40
317
 40
318
 40
319
 40
320
 40
321
 40
322
 40
323
 40
324
 40
325
 40
326
 40
327
 40
328
 40
329
 40
330
 40
331
 40
332
 40
333
 40
334
 40
335
 40
336
 40
337
 40
338
 40
339
 40
340
 40
341
 40
342
 40
343
 40
344
 40
345
 40
346
 40
347
 40
348
 40
349
 40
350
 40
351
 40
352
 40
353
 40
354
 40
355
 40
356
 40
357
 40
358
 40
359
 40
360
 40
361
 40
362
 40
363
 40
364
 40
365
 40
366
 40
367
 40
368
 40
369
 40
370
 40
371
 40
372
 40
373
 40
374
 40
375
 40
376
 40
377
 40
378
 40
379
 40
380
 40
381
 40
382
 40
383
 40
384
 40
385
 40
386
 40
387
 40
388
 40
389
 40
390
 40
391
 40
392
 40
393
 40
394
 40
395
 40
396
 40
397
 40
398
 40
399
 40
400
 40
401
 40
402
 40
403
 40
404
 40
405
 40
406
 40
407
 40
408
 40
409
 40
410
 40
411
 40
412
 40
413
 40
414
 40
415
 40
416
 40
417
 40
418
 40
419
 40
420
 40
421
 40
422
 40
423
 40
424
 40
425
 40
426
 40
427
 40
428
 40
429
 40
430
 40
431
 40
432
 40
433
 40
434
 40
435
 40
436
 40
437
 40
438
 40
439
 40
440
 40
441
 40
442
 40
443
 40
444
 40
445
 40
446
 40
447
 40
448
 40
449
 40
450
 40
451
 40
452
 40
453
 40
454
 40
455
 40
456
 40
457
 40
458
 40
459
 40
460
 40
461
 40
462
 40
463
 40
464
 40
465
 40
466
 40
467
 40
468
 40
469
 40
470
 40
471
 40
472
 40
473
 40
474
 40
475
 40
476
 40
477
 40
478
 40
479
 40
480
 40
481
 40
482
 40
483
 40
484
 40
485
 40
486
 40
487
 40
488
 40
489
 40
490
 40
491
 40
492
 40
493
 40
494
 40
495
 40
496
 40
497
 40
498
 40
499
 40
500
 40
501
 40
502
 40
503
 40
504
 40
505
 40
506
 40
507
 40
508
 40
509
 40
510
 40
511
 40
512
 40
513
 40
514
 40
515
 40
516
 40
517
 40
518
 40
519
 40
520
 40
521
 40
522
 40
523
 40
524
 40
525
 40
526
 40
527
 40
528
 40
529
 40
530
 40
531
 40
532
 40
533
 40
534
 40
535
 40
536
 40
537
 40
538
 40
539
 40
540
 40
541
 40
542
 40
543
 40
544
 40
545
 40
546
 40
547
 40
548
 40
549
 40
550
 40
551
 40
552
 40
553
 40
554
 40
555
 40
556
 40
557
 40
558
 40
559
 40
560
 40
561
 40
562
 40
563
 40
564
 40
565
 40
566
 40
567
 40
568
 40
569
 40
570
 40
571
 40
572
 40
573
 40
574
 40
575
 40
576
 40
577
 40
578
 40
579
 40
580
 40
581
 40
582
 40
583
 40
584
 40
585
 40
586
 40
587
 40
588
 40
589
 40
590
 40
591
 40
592
 40
593
 40
594
 40
595
 40
596
 40
597
 40
598
 40
599
 40
600
 40
601
 40
602
 40
603
 40
604
 40
605
 40
606
 40
607
 40
608
 40
609
 40
610
 40
611
 40
612
 40
613
 40
614
 40
615
 40
616
 40
617
 40
618
 40
619
 40
620
 40
621
 40
622
 40
623
 40
624
 40
625
 40
626
 40
627
 40
628
 40
629
 40
630
 40
631
 40
632
 40
633
 40
634
 40
635
 40
636
 40
637
 40
638
 40
639
 40
640
 40
641
 40
642
 40
643
 40
644
 40
645
 40
646
 40
647
 40
648
 40
649
 40
650
 40
651
 40
652
 40
653
 40
654
 40
655
 40
656
 40
657
 40
658
 40
659
 40
660
 40
661
 40
662
 40
663
 40
664
 40
665
 40
666
 40
667
 40
668
 40
669
 40
670
 40
671
 40
672
 40
673
 40
674
 40
675
 40
676
 40
677
 40
678
 40
679
 40
680
 40
681
 40
682
 40
683
 40
684
 40
685
 40
686
 40
687
 40
688
 40
689
 40
690
 40
691
 40
692
 40
693
 40
694
 40
695
 40
696
 40
697
 40
698
 40
699
 40
700
 40
701
 40
702
 40
703
 40
704
 40
705
 40
706
 40
707
 40
708
 40
709
 40
710
 40
711
 40
712
 40
713
 40
714
 40
715
 40
716
 40
717
 40
718
 40
719
 40
720
 40
721
 40
722
 40
723
 40
724
 40
725
 40
726
 40
727
 40
728
 40
729
 40
730
 40
731
 40
732
 40
733
 40
734
 40
735
 40
736
 40
737
 40
738
 40
739
 40
740
 40
741
 40
742
 40
743
 40
744
 40
745
 40
746
 40
747
 40
748
 40
749
 40
750
 40
751
 40
752
 40
753
 40
754
 40
755
 40
756
 40
757
 40
758
 40
759
 40
760
 40
761
 40
762
 40
763
 40
764
 40
765
 40
766
 40
767
 40
768
 40
769
 40
770
 40
771
 40
772
 40
773
 40
774
 40
775
 40
776
 40
777
 40
778
 40
779
 40
780
 40
781
 40
782
 40
783
 40
784
 40
785
 40
786
 40
787
 40
788
 40
789
 40
790
 40
791
 40
792
 40
793
 40
794
 40
795
 40
796
 40
797
 40
798
 40
799
 40
800
 40
801
 40
802
 40
803
 40
804
 40
805
 40
806
 40
807
 40
808
 40
809
 40
810
 40
811
 40
812
 40
813
 40
814
 40
815
 40
816
 40
817
 40
818
 40
819
 40
820
 40
821
 40
822
 40
823
 40
824
 40
825
 40
826
 40
827
 40
828
 40
829
 40
830
 40
831
 40
832
 40
833
 40
834
 40
835
 40
836
 40
837
 40
838
 40
839
 40
840
 40
841
 40
842
 40
843
 40
844
 40
845
 40
846
 40
847
 40
848
 40
849
 40
850
 40
851
 40
852
 40
853
 40
854
 40
855
 40
856
 40
857
 40
858
 40
859
 40
860
 40
861
 40
862
 40
863
 40
864
 40
865
 40
866
 40
867
 40
868
 40
869
 40
870
 40
871
 40
872
 40
873
 40
874
 40
875
 40
876
 40
877
 40
878
 40
879
 40
880
 40
881
 40
882
 40
883
 40
884
 40
885
 40
886
 40
887
 40
888
 40
889
 40
890
 40
891
 40
892
 40
893
 40
894
 40
895
 40
896
 40
897
 40
898
 40
899
 40
900
 40
901
 40
902
 40
903
 40
904
 40
905
 40
906
 40
907
 40
908
 40
909
 40
910
 40
911
 40
912
 40
913
 40
914
 40
915
 40
916
 40
917
 40
918
 40
919
 40
920
 40
921
 40
922
 40
923
 40
924
 40
925
 40
926
 40
927
 40
928
 40
929
 40
930
 40
931
 40
932
 40
933
 40
934
 40
935
 40
936
 40
937
 40
938
 40
939
 40
940
 40
941
 40
942
 40
943
 40
944
 40
945
 40
946
 40
947
 40
948
 40
949
 40
950
 40
951
 40
952
 40
953
 40
954
 40
955
 40
956
 40
957
 40
958
 40
959
 40
960
 40
961
 40
962
 40
963
 40
964
 40
965
 40
966
 40
967
 40
968
 40
969
 40
970
 40
971
 40
972
 40
973
 40
974
 40
975
 40
976
 40
977
 40
978
 40
979
 40
980
 40
981
 40
982
 40
983
 40
984
 40
985
 40
986
 40
987
 40
988
 40
989
 40
990
 40
991
 40
992
 40
993
 40
994
 40
995
 40
996
 40
997
 40
998
 40
998
 40
998
 40
998
 10
13.5
 20
0
 30
0
 10
13.4986919954535
 20
0.06360650321274131
 30
0
 10
13.4947850259907
 20
0.126882719298865
 30
0
 10
13.4883299067323
 20
0.189503053531996
 30
0
 10
13.4794102701603
 20
0.251151260601773
 30
0
 10
13.4681409720672
 20
0.311525031974574
 30
0
 10
13.4546658491008
 20
0.370340481627918
 30
0
 10
13.4391548150816
 20
0.427336501825544
 30
0
 10
13.4218002765283
 20
0.48227896583572
 30
0
 10
13.4028128384349
 20
0.534964761730874
 30
0
 10
13.382416258319
 20
0.58522565125187
 30
0
 10
13.360841588585
 20
0.632931961091196
 30
0
 10
13.3383204225746
 20
0.677996132222955
 30
0
 10
13.3150771259401
 20
0.720376178164593
 30
0
 10
13.2913198889529
 20
0.760079138464971
 30
0
 10
13.2672303726552
 20
0.7971646641486539
 30
0
 10
13.2429516363656
 20
0.831748944877239
 30
0
 10
13.2185739178721
 20
0.864009295105935
 30
0
 10
13.1941176799245
 20
0.894189877404869
 30
0
 10
13.169513123693
 20
0.922609285717596
 30
0
 10
13.1445750856205
 20
0.949671088884346
 30
0
 10
13.118971863258
 20
0.975879025905169
 30
0
 10
13.0921860535319
 20
1.00185948202394
 30
0
 10
13.0634649656069
 20
1.02839537785766
 30
0
 10
13.0317577250861
 20
1.05647803043466
 30
0
 10
12.9956362143937
 20
1.08738746351953
 30
0
 10
12.9531985341429
 20
1.1228178945969
 30
0
 10
12.9019592727474
 20
1.1650747226966
 30
0
 10
12.8387465229427
 20
1.21738268490126
 30
0
 10
12.7596645687458
 20
1.28435848060642
 30
0
 10
12.6602700572375
 20
1.37269697746075
 30
0
 10
12.5362891146103
 20
1.49203506853481
 30
0
 10
12.3854831349743
 20
1.65561987261491
 30
0
 10
12.2114018820694
 20
1.87950584967677
 30
0
 10
12.0286678350261
 20
2.17756061860786
 30
0
 10
11.8653772372421
 20
2.54996609308282
 30
0
 10
11.7540483852079
 20
2.97089511019043
 30
0
 10
11.7116066162268
 20
3.39224183482563
 30
0
 10
11.7287026859215
 20
3.76809853531081
 30
0
 10
11.7808361863796
 20
4.07561216154956
 30
0
 10
11.8452437848387
 20
4.31463479511089
 30
0
 10
11.9080517900826
 20
4.49634796609471
 30
0
 10
11.9631843085
 20
4.63415820440066
 30
0
 10
12.0091626450173
 20
4.73972221550998
 30
0
 10
12.046644111829
 20
4.82206529297829
 30
0
 10
12.0770413141373
 20
4.88787257132606
 30
0
 10
12.1018664230038
 20
4.94203643047547
 30
0
 10
12.1224627918798
 20
4.98814886216427
 30
0
 10
12.1399209393286
 20
5.02887342631518
 30
0
 10
12.1550747251703
 20
5.06620856433244
 30
0
 10
12.1685283791218
 20
5.10166955328758
 30
0
 10
12.1806923537206
 20
5.13641360182936
 30
0
 10
12.1918188461187
 20
5.17132629386468
 30
0
 10
12.2020336640527
 20
5.20708199912752
 30
0
 10
12.2113636338962
 20
5.24418675824177
 30
0
 10
12.2197597574065
 20
5.28300932652463
 30
0
 10
12.2271166598043
 20
5.32380417522876
 30
0
 10
12.2332889230774
 20
5.36672900108668
 30
0
 10
12.2381048405049
 20
5.41185846878251
 30
0
 10
12.2413780384956
 20
5.45919536070283
 30
0
 10
12.2429173218822
 20
5.50867993859334
 30
0
 10
12.2425350204293
 20
5.56019807071322
 30
0
 10
12.2400540502744
 20
5.61358850568115
 30
0
 10
12.235313853543
 20
5.668649554419
 30
0
 10
12.2281753404762
 20
5.72514535739495
 30
0
 10
12.2185249289052
 20
5.78281185451522
 30
0
 10
12.20627775382
 20
5.84136253203586
 30
0
 10
12.1913801034442
 20
5.90049398973752
 30
0
 10
12.1738111262933
 20
5.95989134891038
 30
0
 10
12.1535838450828
 20
6.01923350509401
 30
0
 10
12.1307455071948
 20
6.07819821738063
 30
0
 10
12.1053772970308
 20
6.13646701728254
 30
0
 10
12.0775934323918
 20
6.19372991387633
 30
0
 10
12.047539664566
 20
6.24968986758863
 30
0
 10
12.0153911996348
 20
6.30406700215826
 30
0
 10
11.9813500562362
 20
6.35660252268974
 30
0
 10
11.9456418722399
 20
6.40706230707454
 30
0
 10
11.908512169063
 20
6.45524013823423
 30
0
 10
11.8702220771768
 20
6.50096054552048
 30
0
 10
11.831043519118
 20
6.5440812251281
 30
0
 10
11.7912538362324
 20
6.58449501153344
 30
0
 10
11.7511298314303
 20
6.62213137483607
 30
0
 10
11.7109411810253
 20
6.65695742264473
 30
0
 10
11.6709431423874
 20
6.68897839018173
 30
0
 10
11.6313684480215
 20
6.71823760925153
 30
0
 10
11.5924182271143
 20
6.74481595678603
 30
0
 10
11.5542517273364
 20
6.76883079881908
 30
0
 10
11.5169745152975
 20
6.7904344693132
 30
0
 10
11.4806247028603
 20
6.80981236098467
 30
0
 10
11.4451565631917
 20
6.8271807669377
 30
0
 10
11.410420643055
 20
6.84278471441492
 30
0
 10
11.3761391153614
 20
6.85689620469661
 30
0
 10
11.3418746054191
 20
6.86981356781722
 30
0
 10
11.3069900090565
 20
6.88186314906198
 30
0
 10
11.2705958343437
 20
6.89340543046319
 30
0
 10
11.2314802857549
 20
6.90484925070284
 30
0
 10
11.1880156972356
 20
6.91668055419125
 30
0
 10
11.1380333222589
 20
6.92951702482783
 30
0
 10
11.078658053862
 20
6.94420867846402
 30
0
 10
11.0060987687885
 20
6.96201958109118
 30
0
 10
10.9154077261556
 20
6.98495046458199
 30
0
 10
10.8002761008724
 20
7.01629617475091
 30
0
 10
10.6530711379294
 20
7.06155684935037
 30
0
 10
10.4656258084169
 20
7.12974898405711
 30
0
 10
10.2317968630687
 20
7.23471840621913
 30
0
 10
9.95304559842571
 20
7.39473252731694
 30
0
 10
9.646320615964459
 20
7.62661535109514
 30
0
 10
9.34706474218182
 20
7.93214502944203
 30
0
 10
9.09638405660991
 20
8.28601376541118
 30
0
 10
8.91766689032441
 20
8.643608359340391
 30
0
 10
8.80736043593769
 20
8.96555132866761
 30
0
 10
8.74665801028168
 20
9.233107616203389
 30
0
 10
8.71609682353969
 20
9.44550205304402
 30
0
 10
8.70179996972103
 20
9.610713467364951
 30
0
 10
8.695508626997141
 20
9.73879290217384
 30
0
 10
8.692787796017759
 20
9.83887564760027
 30
0
 10
8.691412600668979
 20
9.91835263870767
 30
0
 10
8.69032428832343
 20
9.982923038511579
 30
0
 10
8.689036950461499
 20
10.0368997287121
 30
0
 10
8.687322118978081
 20
10.0835284937609
 30
0
 10
8.68504885632378
 20
10.1252514637941
 30
0
 10
8.682107027572521
 20
10.1639071223477
 30
0
 10
8.678373961290561
 20
10.2008772563462
 30
0
 10
8.673703263591509
 20
10.2371938604809
 30
0
 10
8.66792460691566
 20
10.2736170841589
 30
0
 10
8.660848652148481
 20
10.3106926100724
 30
0
 10
8.65227407358763
 20
10.3487945070642
 30
0
 10
8.641995133473509
 20
10.3881578184756
 30
0
 10
8.629809028075069
 20
10.4289038668802
 30
0
 10
8.61552263271401
 20
10.4710603575617
 30
0
 10
8.59895848319926
 20
10.51457773797
 30
0
 10
8.579959938092649
 20
10.5593428358692
 30
0
 10
8.55839551892424
 20
10.6051904957985
 30
0
 10
8.53416244995412
 20
10.6519137207898
 30
0
 10
8.5071894292119
 20
10.6992726759843
 30
0
 10
8.477438665701129
 20
10.7470028037609
 30
0
 10
8.444907217698301
 20
10.7948222232147
 30
0
 10
8.40962766597934
 20
10.8424385313813
 30
0
 10
8.3716681545272
 20
10.8895550833536
 30
0
 10
8.331131830223249
 20
10.9358767991048
 30
0
 10
8.28815571232205
 20
10.9811155234285
 30
0
 10
8.24290902212512
 20
11.0249949498091
 30
0
 10
8.19559100309403
 20
11.0672551077181
 30
0
 10
8.14642826152896
 20
11.1076564046925
 30
0
 10
8.095671657712151
 20
11.1459832087602
 30
0
 10
8.04359277688477
 20
11.1820469527037
 30
0
 10
7.99048000837584
 20
11.2156887388143
 30
0
 10
7.9366342593865
 20
11.2467814207622
 30
0
 10
7.88236432705811
 20
11.2752311376511
 30
0
 10
7.82798194815271
 20
11.3009782739133
 30
0
 10
7.77379653948229
 20
11.3239978171039
 30
0
 10
7.72010963351931
 20
11.3442990835506
 30
0
 10
7.66720900157133
 20
11.3619247788384
 30
0
 10
7.61536244035441
 20
11.3769493558512
 30
0
 10
7.56481117514602
 20
11.3894766271
 30
0
 10
7.51576280165764
 20
11.3996365798123
 30
0
 10
7.46838364607191
 20
11.4075813311943
 30
0
 10
7.42279036360681
 20
11.413480146867
 30
0
 10
7.37904051357543
 20
11.4175134273565
 30
0
 10
7.33712173299088
 20
11.4198655458231
 30
0
 10
7.29693896612442
 20
11.4207163962442
 30
0
 10
7.25829897131623
 20
11.4202314888981
 30
0
 10
7.22089098456519
 20
11.4185504184547
 30
0
 10
7.18426192057267
 20
11.415773549501
 30
0
 10
7.14778375917468
 20
11.411946857445
 30
0
 10
7.11060968586017
 20
11.4070451171731
 30
0
 10
7.07161397128085
 20
11.4009542265999
 30
0
 10
7.02930828604869
 20
11.393454751035
 30
0
 10
6.98172396688404
 20
11.3842115124862
 30
0
 10
6.92624573026958
 20
11.3727796988546
 30
0
 10
6.85937848579667
 20
11.3586494169665
 30
0
 10
6.77642931970814
 20
11.3413732168006
 30
0
 10
6.67110422136016
 20
11.3208635622911
 30
0
 10
6.53508893340551
 20
11.2980184025618
 30
0
 10
6.35788896323016
 20
11.275919183901
 30
0
 10
6.12769235830771
 20
11.2618216734892
 30
0
 10
5.83483517696156
 20
11.269572155016
 30
0
 10
5.47967279590242
 20
11.3200816732428
 30
0
 10
5.08298670289057
 20
11.434686660498
 30
0
 10
4.68778332864022
 20
11.6194883051895
 30
0
 10
4.341104709876
 20
11.853991530035
 30
0
 10
4.06906114315535
 20
12.1012696183707
 30
0
 10
3.87094167016831
 20
12.3297365142376
 30
0
 10
3.73151036293386
 20
12.5238293696501
 30
0
 10
3.63359318004817
 20
12.6811430104962
 30
0
 10
3.56353256447836
 20
12.8058840513146
 30
0
 10
3.51184533560537
 20
12.9042715172339
 30
0
 10
3.47227645204573
 20
12.9823532033019
 30
0
 10
3.44073312556375
 20
13.0452539217405
 30
0
 10
3.41449138804368
 20
13.0970626955368
 30
0
 10
3.39167880917378
 20
13.1409479271735
 30
0
 10
3.37095464461582
 20
13.1793256681707
 30
0
 10
3.35131609452946
 20
13.2140176331153
 30
0
 10
3.33198168128593
 20
13.2463815848445
 30
0
 10
3.31232107655125
 20
13.2774135678863
 30
0
 10
3.29181283791875
 20
13.3078265322206
 30
0
 10
3.2700189616656
 20
13.3381105889142
 30
0
 10
3.24656960162001
 20
13.3685794434758
 30
0
 10
3.22115393600632
 20
13.3994065737225
 30
0
 10
3.19351472781394
 20
13.4306538279847
 30
0
 10
3.16344506135088
 20
13.4622944080391
 30
0
 10
3.13078630592045
 20
13.4942316638892
 30
0
 10
3.09542670691585
 20
13.5263147322477
 30
0
 10
3.05730022263693
 20
13.5583517632481
 30
0
 10
3.01638536338675
 20
13.5901212719569
 30
0
 10
2.97270387860578
 20
13.6213820008148
 30
0
 10
2.92631919643612
 20
13.6518815700936
 30
0
 10
2.87733455942999
 20
13.681364114229
 30
0
 10
2.82589082705834
 20
13.7095770441629
 30
0
 10
2.77216393454828
 20
13.7362770337042
 30
0
 10
2.71636201108816
 20
13.7612352971471
 30
0
 10
2.65872217029811
 20
13.7842422029476
 30
0
 10
2.59950699315763
 20
13.805111251931
 30
0
 10
2.53900072899562
 20
13.8236824366945
 30
0
 10
2.47750524411277
 20
13.8398249903534
 30
0
 10
2.41533575037785
 20
13.8534395266689
 30
0
 10
2.3528163478578
 20
13.8644595691593
 30
0
 10
2.29027541625975
 20
13.872852463462
 30
0
 10
2.22804088966333
 20
13.8786196644855
 30
0
 10
2.16643544762116
 20
13.8817963873102
 30
0
 10
2.10577165305048
 20
13.8824506079245
 30
0
 10
2.04634706319087
 20
13.8806813962432
 30
0
 10
1.98843933391004
 20
13.8766165589253
 30
0
 10
1.93230132929204
 20
13.8704095626495
 30
0
 10
1.87815623700533
 20
13.8622356989427
 30
0
 10
1.82619267435829
 20
13.8522874383884
 30
0
 10
1.77655974865375
 20
13.8407689037754
 30
0
 10
1.72936200616835
 20
13.8278893667762
 30
0
 10
1.68465416341393
 20
13.8138556388236
 30
0
 10
1.64243545719323
 20
13.7988631810127
 30
0
 10
1.60264336861874
 20
13.7830856962238
 30
0
 10
1.56514635888705
 20
13.7666628843042
 30
0
 10
1.52973508286238
 20
13.7496859320422
 30
0
 10
1.4961112917613
 20
13.7321801671814
 30
0
 10
1.46387325322457
 20
13.7140841242238
 30
0
 10
1.43249593399608
 20
13.6952240491331
 30
0
 10
1.40130329293588
 20
13.675282626694
 30
0
 10
1.36942863880146
 20
13.6537605073528
 30
0
 10
1.33575683540984
 20
13.6299292017509
 30
0
 10
1.2988387646773
 20
13.6027745018029
 30
0
 10
1.25676332163104
 20
13.5709317216135
 30
0
 10
1.20696478301523
 20
13.5326198846977
 30
0
 10
1.14593398540354
 20
13.4855962772414
 30
0
 10
1.06879443469612
 20
13.427185545299
 30
0
 10
0.968715869736717
 20
13.3545076629661
 30
0
 10
0.836220492442454
 20
13.2651635269574
 30
0
 10
0.658726934444276
 20
13.1588354612367
 30
0
 10
0.42141912158033
 20
13.0403306180417
 30
0
 10
0.111739483215957
 20
12.9237397857012
 30
0
 10
-0.270281764935605
 20
12.8342032199821
 30
0
 10
-0.699999999999996
 20
12.8
 30
0
 10
-1.1297182350644
 20
12.8342032199821
 30
0
 10
-1.51173948321595
 20
12.9237397857012
 30
0
 10
-1.82141912158034
 20
13.0403306180417
 30
0
 10
-2.05872693444427
 20
13.1588354612367
 30
0
 10
-2.23622049244246
 20
13.2651635269574
 30
0
 10
-2.36871586973672
 20
13.3545076629661
 30
0
 10
-2.46879443469612
 20
13.427185545299
 30
0
 10
-2.54593398540354
 20
13.4855962772414
 30
0
 10
-2.60696478301524
 20
13.5326198846977
 30
0
 10
-2.65676332163104
 20
13.5709317216135
 30
0
 10
-2.6988387646773
 20
13.6027745018029
 30
0
 10
-2.73575683540984
 20
13.6299292017509
 30
0
 10
-2.76942863880146
 20
13.6537605073528
 30
0
 10
-2.80130329293588
 20
13.675282626694
 30
0
 10
-2.83249593399608
 20
13.6952240491331
 30
0
 10
-2.86387325322458
 20
13.7140841242238
 30
0
 10
-2.8961112917613
 20
13.7321801671814
 30
0
 10
-2.92973508286238
 20
13.7496859320422
 30
0
 10
-2.96514635888705
 20
13.7666628843042
 30
0
 10
-3.00264336861874
 20
13.7830856962238
 30
0
 10
-3.04243545719323
 20
13.7988631810127
 30
0
 10
-3.08465416341393
 20
13.8138556388236
 30
0
 10
-3.12936200616835
 20
13.8278893667762
 30
0
 10
-3.17655974865375
 20
13.8407689037754
 30
0
 10
-3.22619267435829
 20
13.8522874383884
 30
0
 10
-3.27815623700533
 20
13.8622356989427
 30
0
 10
-3.33230132929204
 20
13.8704095626495
 30
0
 10
-3.38843933391004
 20
13.8766165589253
 30
0
 10
-3.44634706319087
 20
13.8806813962432
 30
0
 10
-3.50577165305048
 20
13.8824506079245
 30
0
 10
-3.56643544762116
 20
13.8817963873102
 30
0
 10
-3.62804088966333
 20
13.8786196644855
 30
0
 10
-3.69027541625975
 20
13.872852463462
 30
0
 10
-3.7528163478578
 20
13.8644595691593
 30
0
 10
-3.81533575037785
 20
13.8534395266689
 30
0
 10
-3.87750524411277
 20
13.8398249903534
 30
0
 10
-3.93900072899562
 20
13.8236824366945
 30
0
 10
-3.99950699315763
 20
13.805111251931
 30
0
 10
-4.05872217029811
 20
13.7842422029476
 30
0
 10
-4.11636201108816
 20
13.7612352971471
 30
0
 10
-4.17216393454829
 20
13.7362770337042
 30
0
 10
-4.22589082705834
 20
13.7095770441629
 30
0
 10
-4.27733455942999
 20
13.681364114229
 30
0
 10
-4.32631919643613
 20
13.6518815700936
 30
0
 10
-4.37270387860578
 20
13.6213820008148
 30
0
 10
-4.41638536338675
 20
13.5901212719569
 30
0
 10
-4.45730022263693
 20
13.5583517632481
 30
0
 10
-4.49542670691585
 20
13.5263147322477
 30
0
 10
-4.53078630592045
 20
13.4942316638892
 30
0
 10
-4.56344506135088
 20
13.4622944080391
 30
0
 10
-4.59351472781395
 20
13.4306538279847
 30
0
 10
-4.62115393600632
 20
13.3994065737225
 30
0
 10
-4.64656960162001
 20
13.3685794434758
 30
0
 10
-4.6700189616656
 20
13.3381105889142
 30
0
 10
-4.69181283791875
 20
13.3078265322206
 30
0
 10
-4.71232107655125
 20
13.2774135678863
 30
0
 10
-4.73198168128593
 20
13.2463815848445
 30
0
 10
-4.75131609452946
 20
13.2140176331153
 30
0
 10
-4.77095464461582
 20
13.1793256681707
 30
0
 10
-4.79167880917378
 20
13.1409479271735
 30
0
 10
-4.81449138804368
 20
13.0970626955368
 30
0
 10
-4.84073312556376
 20
13.0452539217405
 30
0
 10
-4.87227645204573
 20
12.9823532033019
 30
0
 10
-4.91184533560537
 20
12.9042715172339
 30
0
 10
-4.96353256447837
 20
12.8058840513146
 30
0
 10
-5.03359318004817
 20
12.6811430104962
 30
0
 10
-5.13151036293386
 20
12.5238293696501
 30
0
 10
-5.27094167016832
 20
12.3297365142376
 30
0
 10
-5.46906114315535
 20
12.1012696183707
 30
0
 10
-5.74110470987602
 20
11.853991530035
 30
0
 10
-6.08778332864021
 20
11.6194883051895
 30
0
 10
-6.4829867028906
 20
11.434686660498
 30
0
 10
-6.87967279590244
 20
11.3200816732428
 30
0
 10
-7.23483517696156
 20
11.269572155016
 30
0
 10
-7.5276923583077
 20
11.2618216734892
 30
0
 10
-7.75788896323016
 20
11.275919183901
 30
0
 10
-7.93508893340551
 20
11.2980184025618
 30
0
 10
-8.071104221360169
 20
11.3208635622911
 30
0
 10
-8.17642931970815
 20
11.3413732168006
 30
0
 10
-8.25937848579667
 20
11.3586494169665
 30
0
 10
-8.32624573026958
 20
11.3727796988546
 30
0
 10
-8.38172396688404
 20
11.3842115124862
 30
0
 10
-8.429308286048689
 20
11.393454751035
 30
0
 10
-8.471613971280849
 20
11.4009542265999
 30
0
 10
-8.510609685860169
 20
11.4070451171731
 30
0
 10
-8.547783759174679
 20
11.411946857445
 30
0
 10
-8.58426192057267
 20
11.415773549501
 30
0
 10
-8.62089098456519
 20
11.4185504184547
 30
0
 10
-8.658298971316229
 20
11.4202314888981
 30
0
 10
-8.696938966124421
 20
11.4207163962442
 30
0
 10
-8.737121732990881
 20
11.4198655458231
 30
0
 10
-8.779040513575429
 20
11.4175134273565
 30
0
 10
-8.82279036360681
 20
11.413480146867
 30
0
 10
-8.868383646071919
 20
11.4075813311943
 30
0
 10
-8.915762801657641
 20
11.3996365798123
 30
0
 10
-8.96481117514602
 20
11.3894766271
 30
0
 10
-9.01536244035441
 20
11.3769493558512
 30
0
 10
-9.06720900157133
 20
11.3619247788384
 30
0
 10
-9.1201096335193
 20
11.3442990835507
 30
0
 10
-9.173796539482289
 20
11.3239978171039
 30
0
 10
-9.22798194815271
 20
11.3009782739133
 30
0
 10
-9.28236432705811
 20
11.2752311376511
 30
0
 10
-9.336634259386511
 20
11.2467814207622
 30
0
 10
-9.39048000837585
 20
11.2156887388143
 30
0
 10
-9.443592776884779
 20
11.1820469527037
 30
0
 10
-9.495671657712141
 20
11.1459832087602
 30
0
 10
-9.54642826152895
 20
11.1076564046925
 30
0
 10
-9.595591003094031
 20
11.0672551077181
 30
0
 10
-9.642909022125121
 20
11.0249949498091
 30
0
 10
-9.68815571232205
 20
10.9811155234285
 30
0
 10
-9.73113183022325
 20
10.9358767991048
 30
0
 10
-9.7716681545272
 20
10.8895550833536
 30
0
 10
-9.80962766597934
 20
10.8424385313813
 30
0
 10
-9.844907217698299
 20
10.7948222232147
 30
0
 10
-9.877438665701121
 20
10.7470028037609
 30
0
 10
-9.9071894292119
 20
10.6992726759843
 30
0
 10
-9.934162449954121
 20
10.6519137207898
 30
0
 10
-9.95839551892424
 20
10.6051904957985
 30
0
 10
-9.97995993809265
 20
10.5593428358692
 30
0
 10
-9.99895848319926
 20
10.51457773797
 30
0
 10
-10.015522632714
 20
10.4710603575617
 30
0
 10
-10.0298090280751
 20
10.4289038668802
 30
0
 10
-10.0419951334735
 20
10.3881578184756
 30
0
 10
-10.0522740735876
 20
10.3487945070642
 30
0
 10
-10.0608486521485
 20
10.3106926100724
 30
0
 10
-10.0679246069157
 20
10.2736170841589
 30
0
 10
-10.0737032635915
 20
10.2371938604809
 30
0
 10
-10.0783739612906
 20
10.2008772563462
 30
0
 10
-10.0821070275725
 20
10.1639071223477
 30
0
 10
-10.0850488563238
 20
10.1252514637941
 30
0
 10
-10.0873221189781
 20
10.0835284937609
 30
0
 10
-10.0890369504615
 20
10.0368997287121
 30
0
 10
-10.0903242883234
 20
9.982923038511579
 30
0
 10
-10.091412600669
 20
9.91835263870767
 30
0
 10
-10.0927877960178
 20
9.83887564760027
 30
0
 10
-10.0955086269971
 20
9.738792902173831
 30
0
 10
-10.101799969721
 20
9.610713467364951
 30
0
 10
-10.1160968235397
 20
9.44550205304402
 30
0
 10
-10.1466580102817
 20
9.233107616203389
 30
0
 10
-10.2073604359377
 20
8.965551328667599
 30
0
 10
-10.3176668903244
 20
8.6436083593404
 30
0
 10
-10.4963840566099
 20
8.28601376541118
 30
0
 10
-10.7470647421818
 20
7.93214502944202
 30
0
 10
-11.0463206159645
 20
7.62661535109513
 30
0
 10
-11.3530455984257
 20
7.39473252731693
 30
0
 10
-11.6317968630687
 20
7.23471840621913
 30
0
 10
-11.8656258084169
 20
7.12974898405711
 30
0
 10
-12.0530711379294
 20
7.06155684935038
 30
0
 10
-12.2002761008724
 20
7.01629617475091
 30
0
 10
-12.3154077261556
 20
6.98495046458199
 30
0
 10
-12.4060987687885
 20
6.96201958109118
 30
0
 10
-12.478658053862
 20
6.94420867846402
 30
0
 10
-12.5380333222589
 20
6.92951702482783
 30
0
 10
-12.5880156972356
 20
6.91668055419126
 30
0
 10
-12.6314802857549
 20
6.90484925070284
 30
0
 10
-12.6705958343437
 20
6.89340543046319
 30
0
 10
-12.7069900090565
 20
6.88186314906198
 30
0
 10
-12.7418746054191
 20
6.86981356781723
 30
0
 10
-12.7761391153614
 20
6.85689620469661
 30
0
 10
-12.810420643055
 20
6.84278471441492
 30
0
 10
-12.8451565631917
 20
6.8271807669377
 30
0
 10
-12.8806247028603
 20
6.80981236098467
 30
0
 10
-12.9169745152975
 20
6.7904344693132
 30
0
 10
-12.9542517273364
 20
6.76883079881908
 30
0
 10
-12.9924182271143
 20
6.74481595678603
 30
0
 10
-13.0313684480215
 20
6.71823760925152
 30
0
 10
-13.0709431423874
 20
6.68897839018173
 30
0
 10
-13.1109411810253
 20
6.65695742264473
 30
0
 10
-13.1511298314303
 20
6.62213137483607
 30
0
 10
-13.1912538362324
 20
6.58449501153344
 30
0
 10
-13.231043519118
 20
6.5440812251281
 30
0
 10
-13.2702220771768
 20
6.50096054552049
 30
0
 10
-13.308512169063
 20
6.45524013823423
 30
0
 10
-13.3456418722399
 20
6.40706230707454
 30
0
 10
-13.3813500562362
 20
6.35660252268974
 30
0
 10
-13.4153911996348
 20
6.30406700215825
 30
0
 10
-13.447539664566
 20
6.24968986758864
 30
0
 10
-13.4775934323918
 20
6.19372991387633
 30
0
 10
-13.5053772970308
 20
6.13646701728254
 30
0
 10
-13.5307455071948
 20
6.07819821738064
 30
0
 10
-13.5535838450828
 20
6.01923350509401
 30
0
 10
-13.5738111262933
 20
5.95989134891038
 30
0
 10
-13.5913801034442
 20
5.90049398973752
 30
0
 10
-13.60627775382
 20
5.84136253203586
 30
0
 10
-13.6185249289052
 20
5.78281185451522
 30
0
 10
-13.6281753404762
 20
5.72514535739495
 30
0
 10
-13.635313853543
 20
5.668649554419
 30
0
 10
-13.6400540502744
 20
5.61358850568115
 30
0
 10
-13.6425350204293
 20
5.56019807071323
 30
0
 10
-13.6429173218822
 20
5.50867993859334
 30
0
 10
-13.6413780384956
 20
5.45919536070283
 30
0
 10
-13.6381048405049
 20
5.41185846878251
 30
0
 10
-13.6332889230774
 20
5.36672900108667
 30
0
 10
-13.6271166598043
 20
5.32380417522876
 30
0
 10
-13.6197597574065
 20
5.28300932652463
 30
0
 10
-13.6113636338962
 20
5.24418675824177
 30
0
 10
-13.6020336640527
 20
5.20708199912752
 30
0
 10
-13.5918188461187
 20
5.17132629386468
 30
0
 10
-13.5806923537206
 20
5.13641360182936
 30
0
 10
-13.5685283791218
 20
5.10166955328758
 30
0
 10
-13.5550747251703
 20
5.06620856433244
 30
0
 10
-13.5399209393286
 20
5.02887342631518
 30
0
 10
-13.5224627918798
 20
4.98814886216427
 30
0
 10
-13.5018664230038
 20
4.94203643047547
 30
0
 10
-13.4770413141373
 20
4.88787257132606
 30
0
 10
-13.446644111829
 20
4.82206529297829
 30
0
 10
-13.4091626450173
 20
4.73972221550998
 30
0
 10
-13.3631843085
 20
4.63415820440066
 30
0
 10
-13.3080517900826
 20
4.49634796609471
 30
0
 10
-13.2452437848387
 20
4.3146347951109
 30
0
 10
-13.1808361863796
 20
4.07561216154956
 30
0
 10
-13.1287026859215
 20
3.76809853531081
 30
0
 10
-13.1116066162268
 20
3.39224183482562
 30
0
 10
-13.1540483852079
 20
2.97089511019041
 30
0
 10
-13.2653772372421
 20
2.54996609308279
 30
0
 10
-13.4286678350261
 20
2.17756061860786
 30
0
 10
-13.6114018820694
 20
1.87950584967677
 30
0
 10
-13.7854831349743
 20
1.65561987261492
 30
0
 10
-13.9362891146103
 20
1.49203506853482
 30
0
 10
-14.0602700572375
 20
1.37269697746075
 30
0
 10
-14.1596645687458
 20
1.28435848060642
 30
0
 10
-14.2387465229427
 20
1.21738268490126
 30
0
 10
-14.3019592727474
 20
1.16507472269659
 30
0
 10
-14.3531985341429
 20
1.1228178945969
 30
0
 10
-14.3956362143937
 20
1.08738746351953
 30
0
 10
-14.4317577250861
 20
1.05647803043466
 30
0
 10
-14.4634649656069
 20
1.02839537785766
 30
0
 10
-14.4921860535319
 20
1.00185948202394
 30
0
 10
-14.518971863258
 20
0.975879025905167
 30
0
 10
-14.5445750856205
 20
0.949671088884345
 30
0
 10
-14.569513123693
 20
0.922609285717595
 30
0
 10
-14.5941176799245
 20
0.894189877404867
 30
0
 10
-14.6185739178721
 20
0.864009295105936
 30
0
 10
-14.6429516363656
 20
0.831748944877242
 30
0
 10
-14.6672303726552
 20
0.7971646641486549
 30
0
 10
-14.6913198889529
 20
0.760079138464969
 30
0
 10
-14.7150771259401
 20
0.720376178164589
 30
0
 10
-14.7383204225746
 20
0.67799613222295
 30
0
 10
-14.760841588585
 20
0.632931961091195
 30
0
 10
-14.782416258319
 20
0.585225651251872
 30
0
 10
-14.8028128384349
 20
0.534964761730874
 30
0
 10
-14.8218002765283
 20
0.482278965835719
 30
0
 10
-14.8391548150816
 20
0.427336501825546
 30
0
 10
-14.8546658491008
 20
0.370340481627919
 30
0
 10
-14.8681409720672
 20
0.311525031974573
 30
0
 10
-14.8794102701603
 20
0.251151260601768
 30
0
 10
-14.8883299067323
 20
0.189503053531994
 30
0
 10
-14.8947850259907
 20
0.126882719298862
 30
0
 10
-14.8986919954535
 20
0.063606503212739
 30
0
 10
-14.9
 20
1.74e-15
 30
0
 10
-14.8986919954535
 20
-0.063606503212739
 30
0
 10
-14.8947850259907
 20
-0.126882719298862
 30
0
 10
-14.8883299067323
 20
-0.189503053531994
 30
0
 10
-14.8794102701603
 20
-0.251151260601775
 30
0
 10
-14.8681409720672
 20
-0.311525031974579
 30
0
 10
-14.8546658491008
 20
-0.370340481627919
 30
0
 10
-14.8391548150816
 20
-0.427336501825552
 30
0
 10
-14.8218002765283
 20
-0.482278965835719
 30
0
 10
-14.8028128384349
 20
-0.534964761730869
 30
0
 10
-14.782416258319
 20
-0.585225651251872
 30
0
 10
-14.760841588585
 20
-0.632931961091195
 30
0
 10
-14.7383204225746
 20
-0.677996132222956
 30
0
 10
-14.7150771259401
 20
-0.720376178164596
 30
0
 10
-14.6913198889529
 20
-0.760079138464975
 30
0
 10
-14.6672303726552
 20
-0.7971646641486549
 30
0
 10
-14.6429516363656
 20
-0.831748944877242
 30
0
 10
-14.6185739178721
 20
-0.864009295105935
 30
0
 10
-14.5941176799245
 20
-0.894189877404869
 30
0
 10
-14.569513123693
 20
-0.922609285717595
 30
0
 10
-14.5445750856205
 20
-0.949671088884346
 30
0
 10
-14.518971863258
 20
-0.975879025905168
 30
0
 10
-14.4921860535319
 20
-1.00185948202394
 30
0
 10
-14.4634649656069
 20
-1.02839537785767
 30
0
 10
-14.4317577250861
 20
-1.05647803043466
 30
0
 10
-14.3956362143937
 20
-1.08738746351953
 30
0
 10
-14.3531985341429
 20
-1.1228178945969
 30
0
 10
-14.3019592727474
 20
-1.1650747226966
 30
0
 10
-14.2387465229427
 20
-1.21738268490126
 30
0
 10
-14.1596645687458
 20
-1.28435848060642
 30
0
 10
-14.0602700572375
 20
-1.37269697746075
 30
0
 10
-13.9362891146103
 20
-1.49203506853481
 30
0
 10
-13.7854831349743
 20
-1.65561987261491
 30
0
 10
-13.6114018820694
 20
-1.87950584967676
 30
0
 10
-13.4286678350261
 20
-2.17756061860784
 30
0
 10
-13.2653772372421
 20
-2.54996609308281
 30
0
 10
-13.1540483852079
 20
-2.97089511019043
 30
0
 10
-13.1116066162268
 20
-3.39224183482564
 30
0
 10
-13.1287026859215
 20
-3.76809853531082
 30
0
 10
-13.1808361863796
 20
-4.07561216154958
 30
0
 10
-13.2452437848387
 20
-4.31463479511089
 30
0
 10
-13.3080517900826
 20
-4.49634796609471
 30
0
 10
-13.3631843085
 20
-4.63415820440066
 30
0
 10
-13.4091626450173
 20
-4.73972221550998
 30
0
 10
-13.446644111829
 20
-4.82206529297829
 30
0
 10
-13.4770413141373
 20
-4.88787257132606
 30
0
 10
-13.5018664230038
 20
-4.94203643047547
 30
0
 10
-13.5224627918798
 20
-4.98814886216427
 30
0
 10
-13.5399209393286
 20
-5.02887342631518
 30
0
 10
-13.5550747251703
 20
-5.06620856433245
 30
0
 10
-13.5685283791218
 20
-5.10166955328758
 30
0
 10
-13.5806923537206
 20
-5.13641360182936
 30
0
 10
-13.5918188461187
 20
-5.17132629386468
 30
0
 10
-13.6020336640527
 20
-5.20708199912752
 30
0
 10
-13.6113636338962
 20
-5.24418675824177
 30
0
 10
-13.6197597574065
 20
-5.28300932652463
 30
0
 10
-13.6271166598043
 20
-5.32380417522876
 30
0
 10
-13.6332889230774
 20
-5.36672900108668
 30
0
 10
-13.6381048405049
 20
-5.41185846878251
 30
0
 10
-13.6413780384956
 20
-5.45919536070282
 30
0
 10
-13.6429173218822
 20
-5.50867993859334
 30
0
 10
-13.6425350204293
 20
-5.56019807071323
 30
0
 10
-13.6400540502744
 20
-5.61358850568115
 30
0
 10
-13.635313853543
 20
-5.66864955441899
 30
0
 10
-13.6281753404762
 20
-5.72514535739495
 30
0
 10
-13.6185249289052
 20
-5.78281185451521
 30
0
 10
-13.60627775382
 20
-5.84136253203586
 30
0
 10
-13.5913801034442
 20
-5.90049398973752
 30
0
 10
-13.5738111262933
 20
-5.95989134891038
 30
0
 10
-13.5535838450828
 20
-6.01923350509401
 30
0
 10
-13.5307455071948
 20
-6.07819821738064
 30
0
 10
-13.5053772970308
 20
-6.13646701728254
 30
0
 10
-13.4775934323918
 20
-6.19372991387633
 30
0
 10
-13.447539664566
 20
-6.24968986758864
 30
0
 10
-13.4153911996348
 20
-6.30406700215826
 30
0
 10
-13.3813500562362
 20
-6.35660252268974
 30
0
 10
-13.3456418722399
 20
-6.40706230707454
 30
0
 10
-13.308512169063
 20
-6.45524013823423
 30
0
 10
-13.2702220771768
 20
-6.50096054552048
 30
0
 10
-13.231043519118
 20
-6.5440812251281
 30
0
 10
-13.1912538362324
 20
-6.58449501153344
 30
0
 10
-13.1511298314303
 20
-6.62213137483607
 30
0
 10
-13.1109411810253
 20
-6.65695742264473
 30
0
 10
-13.0709431423874
 20
-6.68897839018173
 30
0
 10
-13.0313684480215
 20
-6.71823760925153
 30
0
 10
-12.9924182271143
 20
-6.74481595678603
 30
0
 10
-12.9542517273364
 20
-6.76883079881908
 30
0
 10
-12.9169745152975
 20
-6.7904344693132
 30
0
 10
-12.8806247028603
 20
-6.80981236098467
 30
0
 10
-12.8451565631917
 20
-6.8271807669377
 30
0
 10
-12.810420643055
 20
-6.84278471441492
 30
0
 10
-12.7761391153614
 20
-6.85689620469661
 30
0
 10
-12.7418746054191
 20
-6.86981356781723
 30
0
 10
-12.7069900090565
 20
-6.88186314906198
 30
0
 10
-12.6705958343437
 20
-6.89340543046319
 30
0
 10
-12.6314802857549
 20
-6.90484925070284
 30
0
 10
-12.5880156972356
 20
-6.91668055419125
 30
0
 10
-12.5380333222589
 20
-6.92951702482783
 30
0
 10
-12.478658053862
 20
-6.94420867846402
 30
0
 10
-12.4060987687885
 20
-6.96201958109118
 30
0
 10
-12.3154077261556
 20
-6.98495046458199
 30
0
 10
-12.2002761008724
 20
-7.01629617475091
 30
0
 10
-12.0530711379294
 20
-7.06155684935038
 30
0
 10
-11.8656258084169
 20
-7.12974898405711
 30
0
 10
-11.6317968630687
 20
-7.23471840621914
 30
0
 10
-11.3530455984257
 20
-7.39473252731693
 30
0
 10
-11.0463206159644
 20
-7.62661535109514
 30
0
 10
-10.7470647421818
 20
-7.93214502944204
 30
0
 10
-10.4963840566099
 20
-8.286013765411189
 30
0
 10
-10.3176668903244
 20
-8.64360835934038
 30
0
 10
-10.2073604359377
 20
-8.965551328667599
 30
0
 10
-10.1466580102817
 20
-9.2331076162034
 30
0
 10
-10.1160968235397
 20
-9.44550205304402
 30
0
 10
-10.101799969721
 20
-9.610713467364951
 30
0
 10
-10.0955086269971
 20
-9.73879290217384
 30
0
 10
-10.0927877960178
 20
-9.83887564760027
 30
0
 10
-10.091412600669
 20
-9.918352638707679
 30
0
 10
-10.0903242883234
 20
-9.982923038511579
 30
0
 10
-10.0890369504615
 20
-10.0368997287121
 30
0
 10
-10.0873221189781
 20
-10.0835284937609
 30
0
 10
-10.0850488563238
 20
-10.1252514637941
 30
0
 10
-10.0821070275725
 20
-10.1639071223477
 30
0
 10
-10.0783739612906
 20
-10.2008772563462
 30
0
 10
-10.0737032635915
 20
-10.2371938604809
 30
0
 10
-10.0679246069157
 20
-10.2736170841589
 30
0
 10
-10.0608486521485
 20
-10.3106926100724
 30
0
 10
-10.0522740735876
 20
-10.3487945070642
 30
0
 10
-10.0419951334735
 20
-10.3881578184756
 30
0
 10
-10.0298090280751
 20
-10.4289038668802
 30
0
 10
-10.015522632714
 20
-10.4710603575617
 30
0
 10
-9.99895848319926
 20
-10.51457773797
 30
0
 10
-9.97995993809265
 20
-10.5593428358692
 30
0
 10
-9.95839551892424
 20
-10.6051904957985
 30
0
 10
-9.93416244995411
 20
-10.6519137207898
 30
0
 10
-9.9071894292119
 20
-10.6992726759843
 30
0
 10
-9.877438665701121
 20
-10.7470028037609
 30
0
 10
-9.844907217698299
 20
-10.7948222232147
 30
0
 10
-9.809627665979329
 20
-10.8424385313813
 30
0
 10
-9.7716681545272
 20
-10.8895550833536
 30
0
 10
-9.73113183022326
 20
-10.9358767991048
 30
0
 10
-9.68815571232205
 20
-10.9811155234285
 30
0
 10
-9.642909022125121
 20
-11.0249949498091
 30
0
 10
-9.595591003094031
 20
-11.0672551077181
 30
0
 10
-9.54642826152895
 20
-11.1076564046925
 30
0
 10
-9.495671657712141
 20
-11.1459832087602
 30
0
 10
-9.443592776884771
 20
-11.1820469527037
 30
0
 10
-9.390480008375841
 20
-11.2156887388143
 30
0
 10
-9.336634259386511
 20
-11.2467814207622
 30
0
 10
-9.28236432705811
 20
-11.2752311376511
 30
0
 10
-9.227981948152721
 20
-11.3009782739133
 30
0
 10
-9.173796539482289
 20
-11.3239978171039
 30
0
 10
-9.1201096335193
 20
-11.3442990835507
 30
0
 10
-9.06720900157133
 20
-11.3619247788384
 30
0
 10
-9.01536244035441
 20
-11.3769493558512
 30
0
 10
-8.96481117514602
 20
-11.3894766271
 30
0
 10
-8.915762801657641
 20
-11.3996365798123
 30
0
 10
-8.86838364607191
 20
-11.4075813311943
 30
0
 10
-8.82279036360681
 20
-11.413480146867
 30
0
 10
-8.779040513575429
 20
-11.4175134273565
 30
0
 10
-8.73712173299087
 20
-11.4198655458231
 30
0
 10
-8.696938966124421
 20
-11.4207163962442
 30
0
 10
-8.658298971316229
 20
-11.4202314888981
 30
0
 10
-8.620890984565181
 20
-11.4185504184547
 30
0
 10
-8.58426192057267
 20
-11.415773549501
 30
0
 10
-8.547783759174679
 20
-11.411946857445
 30
0
 10
-8.510609685860169
 20
-11.4070451171731
 30
0
 10
-8.471613971280849
 20
-11.4009542265999
 30
0
 10
-8.429308286048689
 20
-11.393454751035
 30
0
 10
-8.38172396688404
 20
-11.3842115124862
 30
0
 10
-8.32624573026958
 20
-11.3727796988546
 30
0
 10
-8.25937848579667
 20
-11.3586494169665
 30
0
 10
-8.17642931970814
 20
-11.3413732168006
 30
0
 10
-8.07110422136016
 20
-11.3208635622911
 30
0
 10
-7.93508893340552
 20
-11.2980184025618
 30
0
 10
-7.75788896323016
 20
-11.275919183901
 30
0
 10
-7.52769235830771
 20
-11.2618216734892
 30
0
 10
-7.23483517696153
 20
-11.269572155016
 30
0
 10
-6.87967279590244
 20
-11.3200816732428
 30
0
 10
-6.48298670289057
 20
-11.434686660498
 30
0
 10
-6.08778332864021
 20
-11.6194883051895
 30
0
 10
-5.74110470987603
 20
-11.853991530035
 30
0
 10
-5.46906114315535
 20
-12.1012696183707
 30
0
 10
-5.27094167016833
 20
-12.3297365142376
 30
0
 10
-5.13151036293385
 20
-12.5238293696501
 30
0
 10
-5.03359318004817
 20
-12.6811430104962
 30
0
 10
-4.96353256447835
 20
-12.8058840513146
 30
0
 10
-4.91184533560537
 20
-12.9042715172339
 30
0
 10
-4.87227645204573
 20
-12.9823532033019
 30
0
 10
-4.84073312556376
 20
-13.0452539217405
 30
0
 10
-4.81449138804368
 20
-13.0970626955368
 30
0
 10
-4.79167880917379
 20
-13.1409479271735
 30
0
 10
-4.77095464461582
 20
-13.1793256681707
 30
0
 10
-4.75131609452946
 20
-13.2140176331153
 30
0
 10
-4.73198168128593
 20
-13.2463815848445
 30
0
 10
-4.71232107655124
 20
-13.2774135678863
 30
0
 10
-4.69181283791875
 20
-13.3078265322206
 30
0
 10
-4.6700189616656
 20
-13.3381105889142
 30
0
 10
-4.64656960162001
 20
-13.3685794434758
 30
0
 10
-4.62115393600632
 20
-13.3994065737225
 30
0
 10
-4.59351472781395
 20
-13.4306538279847
 30
0
 10
-4.56344506135088
 20
-13.4622944080391
 30
0
 10
-4.53078630592045
 20
-13.4942316638892
 30
0
 10
-4.49542670691585
 20
-13.5263147322477
 30
0
 10
-4.45730022263693
 20
-13.5583517632481
 30
0
 10
-4.41638536338675
 20
-13.5901212719569
 30
0
 10
-4.37270387860577
 20
-13.6213820008148
 30
0
 10
-4.32631919643612
 20
-13.6518815700936
 30
0
 10
-4.27733455943
 20
-13.681364114229
 30
0
 10
-4.22589082705834
 20
-13.7095770441629
 30
0
 10
-4.17216393454828
 20
-13.7362770337042
 30
0
 10
-4.11636201108816
 20
-13.7612352971471
 30
0
 10
-4.05872217029811
 20
-13.7842422029476
 30
0
 10
-3.99950699315763
 20
-13.805111251931
 30
0
 10
-3.93900072899562
 20
-13.8236824366945
 30
0
 10
-3.87750524411277
 20
-13.8398249903534
 30
0
 10
-3.81533575037784
 20
-13.8534395266689
 30
0
 10
-3.75281634785781
 20
-13.8644595691593
 30
0
 10
-3.69027541625975
 20
-13.872852463462
 30
0
 10
-3.62804088966333
 20
-13.8786196644855
 30
0
 10
-3.56643544762116
 20
-13.8817963873102
 30
0
 10
-3.50577165305048
 20
-13.8824506079245
 30
0
 10
-3.44634706319087
 20
-13.8806813962432
 30
0
 10
-3.38843933391004
 20
-13.8766165589253
 30
0
 10
-3.33230132929205
 20
-13.8704095626495
 30
0
 10
-3.27815623700532
 20
-13.8622356989427
 30
0
 10
-3.22619267435829
 20
-13.8522874383884
 30
0
 10
-3.17655974865374
 20
-13.8407689037754
 30
0
 10
-3.12936200616835
 20
-13.8278893667762
 30
0
 10
-3.08465416341393
 20
-13.8138556388236
 30
0
 10
-3.04243545719322
 20
-13.7988631810127
 30
0
 10
-3.00264336861874
 20
-13.7830856962238
 30
0
 10
-2.96514635888705
 20
-13.7666628843042
 30
0
 10
-2.92973508286238
 20
-13.7496859320422
 30
0
 10
-2.89611129176129
 20
-13.7321801671814
 30
0
 10
-2.86387325322458
 20
-13.7140841242238
 30
0
 10
-2.83249593399608
 20
-13.695224049133
 30
0
 10
-2.80130329293588
 20
-13.675282626694
 30
0
 10
-2.76942863880146
 20
-13.6537605073528
 30
0
 10
-2.73575683540984
 20
-13.6299292017509
 30
0
 10
-2.6988387646773
 20
-13.6027745018029
 30
0
 10
-2.65676332163104
 20
-13.5709317216135
 30
0
 10
-2.60696478301524
 20
-13.5326198846977
 30
0
 10
-2.54593398540354
 20
-13.4855962772413
 30
0
 10
-2.46879443469612
 20
-13.427185545299
 30
0
 10
-2.36871586973672
 20
-13.3545076629661
 30
0
 10
-2.23622049244245
 20
-13.2651635269574
 30
0
 10
-2.05872693444426
 20
-13.1588354612367
 30
0
 10
-1.82141912158034
 20
-13.0403306180417
 30
0
 10
-1.51173948321596
 20
-12.9237397857012
 30
0
 10
-1.12971823506441
 20
-12.8342032199821
 30
0
 10
-0.699999999999996
 20
-12.8
 30
0
 10
-0.270281764935587
 20
-12.8342032199821
 30
0
 10
0.111739483215972
 20
-12.9237397857012
 30
0
 10
0.421419121580349
 20
-13.0403306180417
 30
0
 10
0.65872693444429
 20
-13.1588354612367
 30
0
 10
0.836220492442472
 20
-13.2651635269574
 30
0
 10
0.968715869736718
 20
-13.3545076629661
 30
0
 10
1.06879443469612
 20
-13.427185545299
 30
0
 10
1.14593398540354
 20
-13.4855962772414
 30
0
 10
1.20696478301523
 20
-13.5326198846977
 30
0
 10
1.25676332163104
 20
-13.5709317216135
 30
0
 10
1.2988387646773
 20
-13.6027745018028
 30
0
 10
1.33575683540984
 20
-13.6299292017509
 30
0
 10
1.36942863880146
 20
-13.6537605073528
 30
0
 10
1.40130329293588
 20
-13.675282626694
 30
0
 10
1.43249593399609
 20
-13.6952240491331
 30
0
 10
1.46387325322457
 20
-13.7140841242238
 30
0
 10
1.4961112917613
 20
-13.7321801671814
 30
0
 10
1.52973508286238
 20
-13.7496859320422
 30
0
 10
1.56514635888706
 20
-13.7666628843042
 30
0
 10
1.60264336861873
 20
-13.7830856962238
 30
0
 10
1.64243545719323
 20
-13.7988631810128
 30
0
 10
1.68465416341393
 20
-13.8138556388236
 30
0
 10
1.72936200616834
 20
-13.8278893667762
 30
0
 10
1.77655974865375
 20
-13.8407689037754
 30
0
 10
1.82619267435829
 20
-13.8522874383884
 30
0
 10
1.87815623700533
 20
-13.8622356989427
 30
0
 10
1.93230132929204
 20
-13.8704095626495
 30
0
 10
1.98843933391005
 20
-13.8766165589253
 30
0
 10
2.04634706319086
 20
-13.8806813962432
 30
0
 10
2.10577165305049
 20
-13.8824506079245
 30
0
 10
2.16643544762116
 20
-13.8817963873102
 30
0
 10
2.22804088966333
 20
-13.8786196644855
 30
0
 10
2.29027541625976
 20
-13.872852463462
 30
0
 10
2.3528163478578
 20
-13.8644595691593
 30
0
 10
2.41533575037786
 20
-13.8534395266689
 30
0
 10
2.47750524411277
 20
-13.8398249903534
 30
0
 10
2.53900072899563
 20
-13.8236824366945
 30
0
 10
2.59950699315762
 20
-13.805111251931
 30
0
 10
2.65872217029811
 20
-13.7842422029476
 30
0
 10
2.71636201108815
 20
-13.7612352971471
 30
0
 10
2.77216393454828
 20
-13.7362770337042
 30
0
 10
2.82589082705834
 20
-13.7095770441629
 30
0
 10
2.87733455942999
 20
-13.681364114229
 30
0
 10
2.92631919643613
 20
-13.6518815700936
 30
0
 10
2.97270387860577
 20
-13.6213820008148
 30
0
 10
3.01638536338675
 20
-13.5901212719569
 30
0
 10
3.05730022263693
 20
-13.5583517632481
 30
0
 10
3.09542670691585
 20
-13.5263147322477
 30
0
 10
3.13078630592045
 20
-13.4942316638892
 30
0
 10
3.16344506135088
 20
-13.4622944080391
 30
0
 10
3.19351472781395
 20
-13.4306538279847
 30
0
 10
3.22115393600632
 20
-13.3994065737225
 30
0
 10
3.24656960162001
 20
-13.3685794434758
 30
0
 10
3.2700189616656
 20
-13.3381105889142
 30
0
 10
3.29181283791876
 20
-13.3078265322206
 30
0
 10
3.31232107655125
 20
-13.2774135678863
 30
0
 10
3.33198168128593
 20
-13.2463815848445
 30
0
 10
3.35131609452946
 20
-13.2140176331153
 30
0
 10
3.37095464461582
 20
-13.1793256681707
 30
0
 10
3.39167880917378
 20
-13.1409479271735
 30
0
 10
3.41449138804368
 20
-13.0970626955368
 30
0
 10
3.44073312556375
 20
-13.0452539217405
 30
0
 10
3.47227645204573
 20
-12.9823532033019
 30
0
 10
3.51184533560537
 20
-12.9042715172339
 30
0
 10
3.56353256447837
 20
-12.8058840513146
 30
0
 10
3.63359318004816
 20
-12.6811430104962
 30
0
 10
3.73151036293387
 20
-12.5238293696501
 30
0
 10
3.87094167016831
 20
-12.3297365142376
 30
0
 10
4.06906114315535
 20
-12.1012696183707
 30
0
 10
4.34110470987601
 20
-11.853991530035
 30
0
 10
4.68778332864022
 20
-11.6194883051895
 30
0
 10
5.08298670289061
 20
-11.434686660498
 30
0
 10
5.47967279590239
 20
-11.3200816732428
 30
0
 10
5.83483517696159
 20
-11.269572155016
 30
0
 10
6.12769235830769
 20
-11.2618216734892
 30
0
 10
6.35788896323019
 20
-11.275919183901
 30
0
 10
6.53508893340551
 20
-11.2980184025618
 30
0
 10
6.67110422136017
 20
-11.3208635622911
 30
0
 10
6.77642931970815
 20
-11.3413732168006
 30
0
 10
6.85937848579667
 20
-11.3586494169665
 30
0
 10
6.92624573026958
 20
-11.3727796988546
 30
0
 10
6.98172396688404
 20
-11.3842115124862
 30
0
 10
7.02930828604869
 20
-11.393454751035
 30
0
 10
7.07161397128085
 20
-11.4009542265999
 30
0
 10
7.11060968586017
 20
-11.4070451171731
 30
0
 10
7.14778375917468
 20
-11.411946857445
 30
0
 10
7.18426192057267
 20
-11.415773549501
 30
0
 10
7.22089098456518
 20
-11.4185504184547
 30
0
 10
7.25829897131624
 20
-11.4202314888981
 30
0
 10
7.29693896612442
 20
-11.4207163962442
 30
0
 10
7.33712173299088
 20
-11.4198655458231
 30
0
 10
7.37904051357542
 20
-11.4175134273565
 30
0
 10
7.42279036360681
 20
-11.413480146867
 30
0
 10
7.46838364607191
 20
-11.4075813311943
 30
0
 10
7.51576280165764
 20
-11.3996365798123
 30
0
 10
7.56481117514603
 20
-11.3894766271
 30
0
 10
7.61536244035441
 20
-11.3769493558512
 30
0
 10
7.66720900157133
 20
-11.3619247788384
 30
0
 10
7.7201096335193
 20
-11.3442990835507
 30
0
 10
7.77379653948229
 20
-11.3239978171039
 30
0
 10
7.82798194815271
 20
-11.3009782739133
 30
0
 10
7.88236432705811
 20
-11.2752311376511
 30
0
 10
7.9366342593865
 20
-11.2467814207622
 30
0
 10
7.99048000837584
 20
-11.2156887388143
 30
0
 10
8.043592776884781
 20
-11.1820469527037
 30
0
 10
8.09567165771214
 20
-11.1459832087602
 30
0
 10
8.14642826152896
 20
-11.1076564046925
 30
0
 10
8.19559100309403
 20
-11.0672551077181
 30
0
 10
8.24290902212512
 20
-11.0249949498091
 30
0
 10
8.28815571232205
 20
-10.9811155234285
 30
0
 10
8.33113183022326
 20
-10.9358767991048
 30
0
 10
8.3716681545272
 20
-10.8895550833536
 30
0
 10
8.40962766597934
 20
-10.8424385313813
 30
0
 10
8.44490721769831
 20
-10.7948222232147
 30
0
 10
8.477438665701129
 20
-10.7470028037609
 30
0
 10
8.5071894292119
 20
-10.6992726759843
 30
0
 10
8.53416244995412
 20
-10.6519137207898
 30
0
 10
8.55839551892424
 20
-10.6051904957985
 30
0
 10
8.579959938092649
 20
-10.5593428358692
 30
0
 10
8.59895848319926
 20
-10.51457773797
 30
0
 10
8.61552263271401
 20
-10.4710603575617
 30
0
 10
8.629809028075069
 20
-10.4289038668802
 30
0
 10
8.641995133473509
 20
-10.3881578184756
 30
0
 10
8.65227407358763
 20
-10.3487945070642
 30
0
 10
8.660848652148481
 20
-10.3106926100724
 30
0
 10
8.66792460691566
 20
-10.2736170841589
 30
0
 10
8.67370326359152
 20
-10.2371938604809
 30
0
 10
8.678373961290569
 20
-10.2008772563462
 30
0
 10
8.682107027572521
 20
-10.1639071223477
 30
0
 10
8.68504885632378
 20
-10.1252514637941
 30
0
 10
8.687322118978081
 20
-10.0835284937609
 30
0
 10
8.689036950461499
 20
-10.0368997287121
 30
0
 10
8.69032428832343
 20
-9.982923038511579
 30
0
 10
8.691412600668979
 20
-9.918352638707679
 30
0
 10
8.69278779601775
 20
-9.838875647600259
 30
0
 10
8.695508626997141
 20
-9.73879290217384
 30
0
 10
8.70179996972103
 20
-9.610713467364929
 30
0
 10
8.71609682353969
 20
-9.44550205304402
 30
0
 10
8.74665801028168
 20
-9.233107616203361
 30
0
 10
8.80736043593769
 20
-8.965551328667599
 30
0
 10
8.917666890324391
 20
-8.64360835934043
 30
0
 10
9.09638405660993
 20
-8.28601376541115
 30
0
 10
9.3470647421818
 20
-7.93214502944206
 30
0
 10
9.646320615964481
 20
-7.62661535109512
 30
0
 10
9.95304559842571
 20
-7.39473252731694
 30
0
 10
10.2317968630688
 20
-7.23471840621911
 30
0
 10
10.4656258084169
 20
-7.12974898405711
 30
0
 10
10.6530711379294
 20
-7.06155684935037
 30
0
 10
10.8002761008724
 20
-7.01629617475091
 30
0
 10
10.9154077261556
 20
-6.98495046458199
 30
0
 10
11.0060987687885
 20
-6.96201958109117
 30
0
 10
11.078658053862
 20
-6.94420867846403
 30
0
 10
11.1380333222589
 20
-6.92951702482783
 30
0
 10
11.1880156972356
 20
-6.91668055419125
 30
0
 10
11.2314802857549
 20
-6.90484925070284
 30
0
 10
11.2705958343437
 20
-6.89340543046319
 30
0
 10
11.3069900090565
 20
-6.88186314906198
 30
0
 10
11.3418746054191
 20
-6.86981356781722
 30
0
 10
11.3761391153614
 20
-6.85689620469661
 30
0
 10
11.410420643055
 20
-6.84278471441491
 30
0
 10
11.4451565631917
 20
-6.8271807669377
 30
0
 10
11.4806247028603
 20
-6.80981236098467
 30
0
 10
11.5169745152975
 20
-6.7904344693132
 30
0
 10
11.5542517273364
 20
-6.76883079881908
 30
0
 10
11.5924182271143
 20
-6.74481595678603
 30
0
 10
11.6313684480215
 20
-6.71823760925153
 30
0
 10
11.6709431423874
 20
-6.68897839018173
 30
0
 10
11.7109411810253
 20
-6.65695742264473
 30
0
 10
11.7511298314303
 20
-6.62213137483607
 30
0
 10
11.7912538362324
 20
-6.58449501153343
 30
0
 10
11.831043519118
 20
-6.5440812251281
 30
0
 10
11.8702220771768
 20
-6.50096054552048
 30
0
 10
11.908512169063
 20
-6.45524013823424
 30
0
 10
11.9456418722399
 20
-6.40706230707454
 30
0
 10
11.9813500562362
 20
-6.35660252268974
 30
0
 10
12.0153911996348
 20
-6.30406700215826
 30
0
 10
12.047539664566
 20
-6.24968986758863
 30
0
 10
12.0775934323918
 20
-6.19372991387633
 30
0
 10
12.1053772970308
 20
-6.13646701728253
 30
0
 10
12.1307455071948
 20
-6.07819821738063
 30
0
 10
12.1535838450828
 20
-6.01923350509401
 30
0
 10
12.1738111262933
 20
-5.95989134891039
 30
0
 10
12.1913801034442
 20
-5.90049398973751
 30
0
 10
12.20627775382
 20
-5.84136253203587
 30
0
 10
12.2185249289052
 20
-5.78281185451521
 30
0
 10
12.2281753404762
 20
-5.72514535739495
 30
0
 10
12.235313853543
 20
-5.668649554419
 30
0
 10
12.2400540502744
 20
-5.61358850568115
 30
0
 10
12.2425350204293
 20
-5.56019807071322
 30
0
 10
12.2429173218822
 20
-5.50867993859333
 30
0
 10
12.2413780384956
 20
-5.45919536070284
 30
0
 10
12.2381048405049
 20
-5.4118584687825
 30
0
 10
12.2332889230774
 20
-5.36672900108668
 30
0
 10
12.2271166598043
 20
-5.32380417522876
 30
0
 10
12.2197597574065
 20
-5.28300932652462
 30
0
 10
12.2113636338962
 20
-5.24418675824177
 30
0
 10
12.2020336640527
 20
-5.20708199912752
 30
0
 10
12.1918188461187
 20
-5.17132629386468
 30
0
 10
12.1806923537206
 20
-5.13641360182936
 30
0
 10
12.1685283791218
 20
-5.10166955328759
 30
0
 10
12.1550747251703
 20
-5.06620856433244
 30
0
 10
12.1399209393286
 20
-5.02887342631518
 30
0
 10
12.1224627918798
 20
-4.98814886216427
 30
0
 10
12.1018664230038
 20
-4.94203643047547
 30
0
 10
12.0770413141373
 20
-4.88787257132605
 30
0
 10
12.046644111829
 20
-4.8220652929783
 30
0
 10
12.0091626450173
 20
-4.73972221550999
 30
0
 10
11.9631843085
 20
-4.63415820440066
 30
0
 10
11.9080517900826
 20
-4.4963479660947
 30
0
 10
11.8452437848387
 20
-4.31463479511089
 30
0
 10
11.7808361863796
 20
-4.07561216154955
 30
0
 10
11.7287026859215
 20
-3.76809853531079
 30
0
 10
11.7116066162268
 20
-3.39224183482566
 30
0
 10
11.7540483852079
 20
-2.97089511019038
 30
0
 10
11.8653772372421
 20
-2.54996609308284
 30
0
 10
12.028667835026
 20
-2.17756061860787
 30
0
 10
12.2114018820694
 20
-1.87950584967677
 30
0
 10
12.3854831349743
 20
-1.6556198726149
 30
0
 10
12.5362891146103
 20
-1.49203506853481
 30
0
 10
12.6602700572375
 20
-1.37269697746074
 30
0
 10
12.7596645687458
 20
-1.28435848060641
 30
0
 10
12.8387465229427
 20
-1.21738268490126
 30
0
 10
12.9019592727474
 20
-1.16507472269659
 30
0
 10
12.9531985341429
 20
-1.1228178945969
 30
0
 10
12.9956362143937
 20
-1.08738746351954
 30
0
 10
13.0317577250861
 20
-1.05647803043465
 30
0
 10
13.0634649656069
 20
-1.02839537785766
 30
0
 10
13.0921860535319
 20
-1.00185948202394
 30
0
 10
13.118971863258
 20
-0.9758790259051729
 30
0
 10
13.1445750856205
 20
-0.949671088884344
 30
0
 10
13.169513123693
 20
-0.922609285717591
 30
0
 10
13.1941176799245
 20
-0.894189877404867
 30
0
 10
13.2185739178721
 20
-0.8640092951059311
 30
0
 10
13.2429516363656
 20
-0.831748944877241
 30
0
 10
13.2672303726552
 20
-0.7971646641486489
 30
0
 10
13.2913198889529
 20
-0.760079138464976
 30
0
 10
13.3150771259401
 20
-0.720376178164587
 30
0
 10
13.3383204225746
 20
-0.677996132222959
 30
0
 10
13.360841588585
 20
-0.632931961091193
 30
0
 10
13.382416258319
 20
-0.585225651251865
 30
0
 10
13.4028128384349
 20
-0.534964761730878
 30
0
 10
13.4218002765283
 20
-0.48227896583571
 30
0
 10
13.4391548150816
 20
-0.427336501825547
 30
0
 10
13.4546658491008
 20
-0.370340481627914
 30
0
 10
13.4681409720672
 20
-0.31152503197458
 30
0
 10
13.4794102701603
 20
-0.251151260601764
 30
0
 10
13.4883299067323
 20
-0.189503053531999
 30
0
 10
13.4947850259907
 20
-0.12688271929886
 30
0
 10
13.4986919954535
 20
-0.0636065032127347
 30
0
 10
13.5
 20
-6.41e-15
 30
0
  0
CIRCLE
  5
77
100
AcDbEntity
  8
roller
  6
ByLayer
 62
  256
370
   -1
100
AcDbCircle
 10
16
 20
0
 40
2.5
  0
CIRCLE
  5
78
100
AcDbEntity
  8
roller
  6
ByLayer
 62
  256
370
   -1
100
AcDbCircle
 10
14.6167273222816
 20
6.5077862892128
 40
2.5
  0
CIRCLE
  5
79
100
AcDbEntity
  8
roller
  6
ByLayer
 62
  256
370
   -1
100
AcDbCircle
 10
10.7060897017417
 20
11.8903172076383
 40
2.5
  0
CIRCLE
  5
7A
100
AcDbEntity
  8
roller
  6
ByLayer
 62
  256
370
   -1
100
AcDbCircle
 10
4.94427190999916
 20
15.2169042607225
 40
2.5
  0
CIRCLE
  5
7B
100
AcDbEntity
  8
roller
  6
ByLayer
 62
  256
370
   -1
100
AcDbCircle
 10
-1.67245541228245
 20
15.9123503258924
 40
2.5
  0
CIRCLE
  5
7C
100
AcDbEntity
  8
roller
  6
ByLayer
 62
  256
370
   -1
100
AcDbCircle
 10
-8
 20
13.856406460551
 40
2.5
  0
CIRCLE
  5
7D
100
AcDbEntity
  8
roller
  6
ByLayer
 62
  256
370
   -1
100
AcDbCircle
 10
-12.9442719099992
 20
9.40456403667957
 40
2.5
  0
CIRCLE
  5
7E
100
AcDbEntity
  8
roller
  6
ByLayer
 62
  256
370
   -1
100
AcDbCircle
 10
-15.6503616117409
 20
3.32658705308416
 40
2.5
  0
CIRCLE
  5
7F
100
AcDbEntity
  8
roller
  6
ByLayer
 62
  256
370
   -1
100
AcDbCircle
 10
-15.6503616117409
 20
-3.32658705308415
 40
2.5
  0
CIRCLE
  5
80
100
AcDbEntity
  8
roller
  6
ByLayer
 62
  256
370
   -1
100
AcDbCircle
 10
-8.000000000000011
 20
-13.856406460551
 40
2.5
  0
CIRCLE
  5
81
100
AcDbEntity
  8
roller
  6
ByLayer
 62
  256
370
   -1
100
AcDbCircle
 10
-1.67245541228247
 20
-15.9123503258924
 40
2.5
  0
CIRCLE
  5
82
100
AcDbEntity
  8
roller
  6
ByLayer
 62
  256
370
   -1
100
AcDbCircle
 10
4.94427190999916
 20
-15.2169042607225
 40
2.5
  0
CIRCLE
  5
83
100
AcDbEntity
  8
roller
  6
ByLayer
 62
  256
370
   -1
100
AcDbCircle
 10
10.7060897017417
 20
-11.8903172076383
 40
2.5
  0
CIRCLE
  5
84
100
AcDbEntity
  8
roller
  6
ByLayer
 62
  256
370
   -1
100
AcDbCircle
 10
14.6167273222816
 20
-6.50778628921281
 40
2.5
  0
CIRCLE
  5
85
100
AcDbEntity
  8
roller
  6
ByLayer
 62
  256
370
   -1
100
AcDbCircle
 10
0
 20
0
 40
3.705
  0
CIRCLE
  5
86
100
AcDbEntity
  8
pressure
  6
ByLayer
 62
  256
370
   -1
100
AcDbCircle
 10
-0.7
 20
0
 40
8.734999999999999
  0
CIRCLE
  5
87
100
AcDbEntity
  8
noname
  6
ByLayer
 62
  256
370
   -1
100
AcDbCircle
 10
-13.8721
 20
6.55273e-15
 40
1.27207
  0
DIMENSION
  5
88
100
AcDbEntity
  8
size
  6
ByLayer
 62
  256
370
   -1
100
AcDbDimension
  2
*D1
 10
9.765607988237876e-17
 20
1.594844814853895
 30
0
 11
-6.93605
 21
2.532344814853898
 31
0
 70
   33
 71
    5
  3
Standard
 53
0
210
0
220
0
230
1
100
AcDbAlignedDimension
 13
-13.8721
 23
6.55273e-15
 33
0
 14
0
 24
0
 34
0
  0
DIMENSION
  5
89
100
AcDbEntity
  8
size
  6
ByLayer
 62
  256
370
   -1
100
AcDbDimension
  2
*D2
 10
-14.52509906383202
 20
-0.4881638339855644
 30
0
 11
-7.359236710005085
 21
1.006260699951851
 31
0
 70
   33
 71
    5
  3
Standard
 53
0
210
0
220
0
230
1
100
AcDbAlignedDimension
 13
0
 23
0
 33
0
 14
-14.47628416647849
 24
-1.119430023662343
 34
0
  0
DIMENSION
  5
8A
100
AcDbEntity
  8
size
  6
ByLayer
 62
  256
370
   -1
100
AcDbDimension
  2
*D3
 10
-12.9442719099992
 20
-9.40456403667957
 30
0
 11
-7.833050893304961
 21
-8.033045870699031
 31
0
 70
   36
 71
    5
 72
    0
  3
Standard
 53
0
210
0
220
0
230
1
100
AcDbRadialDimension
 15
-10.45310060279857
 25
-9.194646152305028
 35
0
 40
0
  0
CIRCLE
  5
8B
100
AcDbEntity
  8
roller
  6
ByLayer
 62
  256
370
   -1
100
AcDbCircle
 10
-12.9442719099992
 20
-9.40456403667957
 40
2.5
  0
DIMENSION
  5
8C
100
AcDbEntity
  8
size
  6
ByLayer
 62
  256
370
   -1
100
AcDbDimension
  2
*D4
 10
0.4127986902952692
 20
-1.942065147516414
 30
0
 11
-7.607299325716827
 21
-2.688345298370546
 31
0
 70
   33
 71
    5
 72
    0
  3
Standard
 53
0
210
0
220
0
230
1
100
AcDbAlignedDimension
 13
-15.6503616117409
 23
-3.32658705308415
 33
0
 14
0
 24
0
 34
0
  0
MTEXT
  5
8D
100
AcDbEntity
  8
size
  6
ByLayer
 62
  256
370
   -1
100
AcDbMText
 10
-64.54010399846476
 20
36.53962810990004
 30
0
 40
2
 41
101.9977777777778
 71
    1
 72
    1
  1
-  (,  )
  7
unicode
210
0
220
0
230
1
 50
0
 73
    2
 44
1
  0
ENDSEC
  0
SECTION
  2
OBJECTS
  0
DICTIONARY
  5
C
330
0
100
AcDbDictionary
281
    1
  3
ACAD_GROUP
350
D
  0
DICTIONARY
  5
D
330
C
100
AcDbDictionary
281
    1
  0
PLOTSETTINGS
  5
8E
100
AcDbPlotSettings
  6
1x1
 40
0
 41
0
 42
0
 43
0
  0
ENDSEC
  0
EOF
